<?xml version="1.0" encoding="utf-8"?><svg width="339" height="322" viewBox="0 0 339 322" xmlns="http://www.w3.org/2000/svg" xmlns:xlink="http://www.w3.org/1999/xlink"><svg width="93" height="85" viewBox="-1 -1 93 85" id="bag" x="203" y="76" xmlns="http://www.w3.org/2000/svg"><defs><style>.acls-1{fill:#b9b9b9;fill-rule:evenodd}</style></defs><path id="abag_icon" data-name="bag icon" class="acls-1" d="M541.983 4122.07c-1.913-.02-3.86-1.42-5.562-2.44s-3.6-2.05-4.673-3.55a1.686 1.686 0 0 1 .222-.66c1.664-.7 4.035 1.7 6.008 2.88 1.763 1.05 4.78 1.7 4.005 3.77zm-2.225 3.78c-1.827 1.43-3.926-1-5.562-2-1.82-1.11-4.523-1.83-5.118-3.77a1.144 1.144 0 0 0 .668-.67c3.736 1.75 7.584 3.38 10.012 6.44zm-2.67 4.44c-1.448.96-3.459-.74-5.562-2-1.641-.99-5.985-2.8-4.45-4.66h.445a32.532 32.532 0 0 1 5.117 3.1c1.532.95 4.047 1.38 4.45 3.56zm-42.942 18.42v1.77a161.266 161.266 0 0 1-18.913 0c.1-.72-.293-1.92.445-2 6.084.15 12.754-.29 18.468.23zm-2.67 9.98a3.691 3.691 0 0 1 3.782 4.89c-1.4 4.4-10.484 1.34-6.452-3.78a3.568 3.568 0 0 1 2.67-1.11zm-1.113 4.66a1.746 1.746 0 0 0 2.67-2.22 1.746 1.746 0 0 0-2.67 2.22zm18.468-4.66c4.752-.4 5.122 7.55 0 7.33-4.757-.21-4.395-6.95 0-7.33zm-1.113 4.66a1.746 1.746 0 0 0 2.67-2.22 1.746 1.746 0 0 0-2.67 2.22zm17.8-4.43c3.375-1.02 5 1.02 4.895 3.55-.182 4.27-7.6 5.03-7.342-.45a3.223 3.223 0 0 1 2.447-3.1zm-.445 3.99a.609.609 0 0 1 .445.67c6.311 1.26.002-6.67-.445-.67zm-24.7 2.44c4.129-.2 5.328 7.15.222 7.33-4.239.14-5.776-7.06-.219-7.33zm-1.335 4.66a1.746 1.746 0 0 0 2.67-2.22 1.746 1.746 0 0 0-2.667 2.22zm17.8-4.44a4.263 4.263 0 0 1 2.447-.22c2.2.55 4.017 6.08 0 7.1-4.16 1.06-7.2-5.44-2.444-6.88zm-.445 4a.6.6 0 0 1 .445.66 3.439 3.439 0 0 0 2.447 0 2.347 2.347 0 0 0 0-2.66c-1.537-.64-3.298 0-2.885 2zm-21.36 8.43a11.933 11.933 0 0 1 5.117 0h-5.117zm42.275 0h-37.155a11.933 11.933 0 0 0-5.117 0h-15.575c-3.461-.94-3.021-7.14-3.783-12.2-.583-3.89-1.166-7.5-1.78-9.99-6.381 1.83-6.2-3.75-7.12-9.1-.771-4.46-1.015-8.37-1.78-10.65v-1.34c.223-1.55 2.368-1.18 3.783-1.55.011-10.19 6.745-17.34 15.8-17.98 10.567-.74 18.046 6.96 18.913 17.98.786-4.23.445-12.55.445-18.86 0-2.1-.962-6.65 1.78-5.77 1.034 7.32.151 16.56.445 24.63h5.117v-19.09c0-1.99-.941-6.43 1.78-5.54 1.321 7.06-.43 17.33.89 24.63 1.749.03 2.018-2 2.67-3.11 4.611-7.84 9.8-16.58 14.908-24.41.969-.27 1.978 1.44 2.224.44 1.474-3.41 1.7-8.07 3.561-11.09h1.335v.22c2.22.95 5.662.34 6.23 2.44.561 2.08-2.13 4.57-1.558 6.88 1.191-1.1 2.271-2.02 3.783-3.33 1-.86 2.605-2.97 4-2.88.97.06 4.972 4.24 4.895 5.77-.122 2.39-3.072 2.11-3.783 4.21.639 1.22 2.021 1.69 2.225 3.33-.981 1.76-2.753 2.73-4.227 4 0 .97.761 1.31.222 2.22-2.95 5.12-6.1 10.04-8.9 15.31 3.135.35 7.877-.9 9.345 1.11.294 2.97-.615 6.55-1.335 11.1-.778 4.92-.434 12.34-6.9 10.65-.507 4.41-1.464 10.02-2.225 15.09-.5 3.36-.159 6.28-3.11 6.88zm-1.558-70.35c3.994 2.45 8.03 4.86 12.238 7.1a13.36 13.36 0 0 0 4-3.55c-3.62-2.17-.91-5.83 1.78-7.1a8.8 8.8 0 0 0-3.115-3.33c-2.269.83-5.03 6.21-7.788 5.99-3.5-.28-.632-5.88-.222-8.43a40.271 40.271 0 0 0-4.228-1.11 89.761 89.761 0 0 0-2.662 10.43zm-3.783.44c-4.544 8.56-10.494 16.91-14.462 25.3 7.8-.51 14.518.06 21.36-.22q4.914-7.635 9.345-15.76c-5.369-3.15-10.535-6.5-16.24-9.32zm-45.167 9.1c-9.263-.48-15.959 6.22-16.02 15.98 3.572.41 7.5.05 11.57 0a4.129 4.129 0 0 1 5.34-3.77c1.789.45 2.2 2.55 3.115 3.77 3.591-.23 6.962.62 10.235 0-.168-9.15-5.629-15.53-14.24-15.98zm-2.447 15.98a13.779 13.779 0 0 0 4 0c.247-2.34-4.253-2.43-3.997 0zM467 4135.61c1.172 5.94 1.988 12.22 3.115 18.2 23.516.27 51.545-.07 75.872 0 1.21-5.97 2.065-12.29 3.115-18.42-12.409-.28-23.326.06-35.6 0-.623 2.19 1.556 7.18-1.78 6.66-.99-1.38-.183-4.55-.445-6.66h-5.117c-.623 2.19 1.556 7.18-1.78 6.66-.991-1.38-.183-4.55-.445-6.66-13.095.12-25.956-.57-36.935.22zm9.122 20.42c1.141 6.48 1.824 13.42 3.115 19.75 17.667.17 39.2-.04 58.3 0 1.387-6.23 2.071-13.17 3.115-19.75-20.852.08-44.536-.25-64.529 0z" transform="translate(-465 -4095)"/></svg><svg id="burger" viewBox="-1 -1 48 37" width="48" height="37" x="228" y="197.36" xmlns="http://www.w3.org/2000/svg"><style>.bst0{fill:#fff}</style><g id="bLayer_2"><g id="bHeader"><g id="bFood_Menu"><g id="bBurgers"><path class="bst0" d="M45.9 21.3c-.2-1-1.5-1.5-1.8-2.8s.2-1.8 0-3.1c3.8-.9.6-3.2 0-4.7s-.5-2.7-1-3.9C41.6 3.2 38.3.7 34.4.3c-3.7-.4-7.7 0-11.5 0-4 0-7.5-.4-11.5 0-5.8.5-9.2 5.3-9.5 10.5-.4 1.1-2 1.9-1.8 3.1.2 1 1.4.6 1.8 1.6v3.1C.6 20.1-.2 20.9.1 22.9c.2 1.4 1.6 1.8 1.8 2.8.5 1.8-.3 3.9 0 5.6.8 4.5 6.9 3.6 12.2 3.6h17.8c3 0 6.2.4 8.9 0 3.8-.5 3.6-5.2 3.5-9.3.9-1.4 2-2.3 1.6-4.3zM11.6 2c3.1-.4 7.4 0 11.5 0s8.3-.4 11.5 0c4.8.6 7 4.5 7.7 8.2H3.7c.8-4 3-7.6 7.9-8.2zM3.4 12h36.8c1.4 0 3.2-.3 3.6 1.5-1.8 1.1-4.6.2-5.9-.6-2.3 2-6.9 2-9.2 0a9.63 9.63 0 0 1-11 0c-2.5 1.9-6.8 2.2-9.2 0-1.4.8-4.2 1.8-6.1.6.1-.6.5-1.1 1-1.5zm38.9 3.8v2.7H3.7v-2.8c1.5.1 3.1-.2 4.4-1 2.1 1.8 7.3 2 9.4 0 2.8 2.1 8.3 2.3 11 0 2.2 1.8 7.2 2 9.4 0 1.3.7 2.9 1.1 4.4 1.1zm-.8 16.6c-1.2 1.1-6.2.7-8.9.7h-19c-2.9 0-7.6.5-8.9-.5s-.9-4.3-1-6.4c0-.2 0-.5.2-.5h38.5c-.2 1.8.4 5.5-.9 6.7zm-7.4-8.5H12.4c-2.2 0-9.2.6-10.2-.6-.6-.8-.5-1.9.3-2.6.1-.1.2-.2.3-.2 1.8-.8 8.2-.2 10.7-.2h21c3.8 0 10.8-1.2 9.5 2.6-.4 1.7-7.2 1-9.9 1zM15 5.3c.6.6 1.5.5 2.1-.1.6-.6.5-1.5-.1-2.1-.7-.5-1.6-.3-2.1.3-.3.6-.3 1.3.1 1.9zm-2.3-.9c-.3-.4-.9-.6-1.5-.4-1.2.3-1.2.8-1.1 1.3.1 2 3.9 1.4 2.6-.9zm.2 3.8c.1.8 1.1 1.3 2.3.8 1.9-2.4-2.8-3.4-2.3-.8z" id="bburger_icon"/></g></g></g></g></svg><svg id="burger-grey" viewBox="-1 -1 48 37" width="48" height="37" x="180" y="197.36" xmlns="http://www.w3.org/2000/svg"><style>.cst0{fill:#a3a3a3}</style><g id="cLayer_2"><g id="cHeader"><g id="cFood_Menu"><g id="cBurgers"><path class="cst0" d="M45.9 21.3c-.2-1-1.5-1.5-1.8-2.8s.2-1.8 0-3.1c3.8-.9.6-3.2 0-4.7s-.5-2.7-1-3.9C41.6 3.2 38.3.7 34.4.3c-3.7-.4-7.7 0-11.5 0-4 0-7.5-.4-11.5 0-5.8.5-9.2 5.3-9.5 10.5-.4 1.1-2 1.9-1.8 3.1.2 1 1.4.6 1.8 1.6v3.1C.6 20.1-.2 20.9.1 22.9c.2 1.4 1.6 1.8 1.8 2.8.5 1.8-.3 3.9 0 5.6.8 4.5 6.9 3.6 12.2 3.6h17.8c3 0 6.2.4 8.9 0 3.8-.5 3.6-5.2 3.5-9.3.9-1.4 2-2.3 1.6-4.3zM11.6 2c3.1-.4 7.4 0 11.5 0s8.3-.4 11.5 0c4.8.6 7 4.5 7.7 8.2H3.7c.8-4 3-7.6 7.9-8.2zM3.4 12h36.8c1.4 0 3.2-.3 3.6 1.5-1.8 1.1-4.6.2-5.9-.6-2.3 2-6.9 2-9.2 0a9.63 9.63 0 0 1-11 0c-2.5 1.9-6.8 2.2-9.2 0-1.4.8-4.2 1.8-6.1.6.1-.6.5-1.1 1-1.5zm38.9 3.8v2.7H3.7v-2.8c1.5.1 3.1-.2 4.4-1 2.1 1.8 7.3 2 9.4 0 2.8 2.1 8.3 2.3 11 0 2.2 1.8 7.2 2 9.4 0 1.3.7 2.9 1.1 4.4 1.1zm-.8 16.6c-1.2 1.1-6.2.7-8.9.7h-19c-2.9 0-7.6.5-8.9-.5s-.9-4.3-1-6.4c0-.2 0-.5.2-.5h38.5c-.2 1.8.4 5.5-.9 6.7zm-7.4-8.5H12.4c-2.2 0-9.2.6-10.2-.6-.6-.8-.5-1.9.3-2.6.1-.1.2-.2.3-.2 1.8-.8 8.2-.2 10.7-.2h21c3.8 0 10.8-1.2 9.5 2.6-.4 1.7-7.2 1-9.9 1zM15 5.3c.6.6 1.5.5 2.1-.1s.5-1.5-.1-2.1c-.7-.5-1.6-.3-2.1.3-.3.6-.3 1.3.1 1.9zm-2.3-.9c-.3-.4-.9-.6-1.5-.4-1.2.3-1.2.8-1.1 1.3.1 2 3.9 1.4 2.6-.9zm.2 3.8c.1.8 1.1 1.3 2.3.8 1.9-2.4-2.8-3.4-2.3-.8z" id="cburger_icon"/></g></g></g></g></svg><svg width="82" height="78" viewBox="-1 -1 82 78" id="chef" y="197.36" xmlns="http://www.w3.org/2000/svg"><defs><style>.dcls-1{fill:#b9b9b9;fill-rule:evenodd}</style></defs><path id="dchef_icon" data-name="chef icon" class="dcls-1" d="M1108.04 4096h4.13c5.82 1.14 10.05 3.85 12.61 8.23 9.61-6.1 24.96-1.2 25.22 10.61v1.95c.15 11.57-11.61 11.29-18.04 16.24-4.2 3.21-3.88 10.15-4.13 18.18-7.7 4.93-27.74 4.9-35.44 0-.81-6.81.9-14.1-3.04-17.53-2.11-1.84-5.9-2.33-8.7-3.69-4.88-2.35-9.25-5.43-10.65-11.47v-3.68c1.57-8.54 8.33-14.24 17.82-13.21 3.11.33 4.9 1.74 7.4 2.81a18.369 18.369 0 0 1 12.82-8.44zm.22 1.95a15.631 15.631 0 0 0-12.61 21c.24.66 3.23 4.45 1.74 5.2-1.16.58-2.5-2.44-3.04-3.68-1.71-3.91-2.14-10.5 0-14.08-8.91-6.91-21.48-.51-22.4 8.88-.8 8.27 6.14 11.42 11.31 13.64 2.11.91 4.87 1.53 6.74 2.82 4.44 3.04 4.21 11.42 4.13 18.62 8.29 3.43 23.66 3.4 31.96 0-.06-6.14-.19-13.22 2.61-16.89 5.57-7.33 20.06-4.73 19.34-18.41-.56-10.74-14.67-14.98-23.91-8.23-3.12-5.45-8-9.75-15.87-8.87zm22.39 29.45c-4.63 1.37-7.73 4.27-7.61 10.39-.68-.04-1.59.15-1.95-.22.07-6.93 3.52-10.49 9.13-11.91-.14.86.57.87.43 1.74zm-28.04 19.48c-.05.68.14 1.59-.22 1.95-1.99-.18-3.66-.69-5.65-.86-.3-3.68 3.58-.61 5.87-1.09zm21.09-.86c.03.61.39.9.43 1.51a16.028 16.028 0 0 1-5.22 1.09c.05-.7-.38-.92-.21-1.74a43.338 43.338 0 0 1 5-.86zm-16.53 1.3h7.18v1.95h-7.18v-1.95zm11.96 24.68h-3.91a12.215 12.215 0 0 1-5.44-2.38c-6.18 4.99-17.76.32-20.65-3.9 7.07 2.76 11.41-3.31 16.96-3.25 1.26.02 2.68 1.1 4.13 1.09a20.82 20.82 0 0 0 2.39-.65c6.8-1.09 10.8 5.75 18.69 2.81-2.98 3.16-7.17 5.13-12.17 6.28zm-9.13-6.28c-4.92-3.3-9.58 1.41-14.13 2.38 3.17 1.51 7.11 2.88 10.87 1.3 1.01-.42 2.1-2 3.26-1.95.95.05 1.97 1.56 2.83 1.95 3.77 1.73 8.33.43 11.52-1.3-4.95-.8-9.18-5.63-14.35-2.38z" transform="translate(-1070 -4096)"/></svg><svg width="105" height="76" viewBox="-1 -1 105 76" id="clock" x="203" xmlns="http://www.w3.org/2000/svg"><defs><style>.ecls-1{fill:#b9b9b9;fill-rule:evenodd}</style></defs><path id="eclock_icon" data-name="clock icon" class="ecls-1" d="M819.554 4098h14.366c1.476 1.03 1.4 6.38.244 7.74-4.422.27-11.071.68-15.1-.25-.314-2.09-.684-6.1.49-7.49zm1.46 2.17v3.63H832.7v-3.63h-11.686zm21.185 5.81c2.6.88 4.5 2.46 6.818 3.63-.053.91-.765 1.17-.974 1.93-2.292-1.03-3.96-2.68-6.574-3.39-.131-1.09.489-1.44.731-2.17zm-30.681 2.42c-2.369.79-4 2.31-6.088 3.38-.712-.1-.79-.83-1.217-1.21 1.567-1.99 4-3.12 6.574-4.11.213.68.787.99.731 1.94zM859 4137.66v5.32c-2.379 16.1-11.709 25.29-26.542 29.02h-11.444c-1.489-.39-3.5-1.03-5.357-1.69-1.8-.64-3.67-1.85-5.113-1.93-1.068-.07-1.945.55-2.922.72-16.859 2.96-31.079-9.2-32.143-23.94-1.139-15.8 8.382-25.23 19.481-28.3a5.351 5.351 0 0 0 .486 1.45c-9.807 4.04-18.266 11.73-18.019 24.43.314 16.1 13.279 26.35 30.438 23.94-1.456-1.19-2.159-2.69-3.9-3.14-2-.52-4.279.11-6.087-.24a20.629 20.629 0 0 1-16.315-16.21 21.476 21.476 0 0 1 5.6-19.1c2.445-2.43 5.581-4.58 9.5-4.84.678 2.31-2.335 2.04 0 3.87 1.352-.46 1.591-2.12 2.191-3.15a32.35 32.35 0 0 1 29.952-15.72c17.515 1.27 27.518 13.16 30.194 29.51zm-42.126-25.88a30.239 30.239 0 0 0-19.968 22.98c-3.888 22.52 15.772 37.37 33.6 35.31a29.945 29.945 0 0 0-6.818-59.5 34.263 34.263 0 0 0-6.813 1.21zm-23.864 14.51c-.883.98-2.535 1.19-2.922 2.66 1.8 1.2 3.057 2.93 5.114 3.87a27.131 27.131 0 0 1 .974-3.14c-1.02-1.16-1.738-2.63-3.165-3.39zm-5.113 4.11a33.17 33.17 0 0 0-2.922 4.84 82.418 82.418 0 0 0 9.5 2.66c-.192-.99.373-1.24.243-2.17-2.218-1.84-4.006-4.09-6.818-5.33zm-4.383 11.37c3.75.08 8.352.84 10.958-.48-.338-1.74-2.8-1.99-4.384-2.42-1.815-.5-3.869-.86-5.6-1.21-.014-.15-.037-.29-.244-.24a11.486 11.486 0 0 0-.729 4.35zm.243 2.42c-.53 1.34.22 3.49.731 4.6 1.744-.42 3.962-.89 5.844-1.46 1.63-.48 4.468-.73 4.383-2.9-3.083-.74-7.122-.44-10.957-.24zm1.7 6.77c.514 1.83 1.807 2.88 2.678 4.36 2.736-1.88 5.545-3.69 7.549-6.29-.361-.05-.223-.59-.244-.97a103.694 103.694 0 0 0-9.977 2.9zm11.2.97c-1.607.64-6.594 4.76-6.575 5.08.06.99 3.946 2.48 4.627 2.66.544-2.82 3.551-4.95 1.955-7.74zm0 8.71c1.476.39 3.856 1.16 5.6.48-1.727-1.11-2.155-3.5-3.9-4.6-.382 1.55-1.313 2.56-1.693 4.12zm31.412-47.65c-.14 1.88.294 4.32-.243 5.81h-1.949c-.277-1.87-1.284-7.69 2.199-5.81zm-7.792 4.11c1.059-.16.39 1.39.974 1.7-7.448 2.6-12.78 7.3-15.584 14.51a3.744 3.744 0 0 1-1.948-.49 24.142 24.142 0 0 1 16.565-15.72zm30.194 16.21c-.682.13-1.265.35-1.948.48-2.634-6.65-6.9-11.69-13.879-14.03a3.8 3.8 0 0 1 .73-2.17c7.426 2.87 12.646 7.92 15.104 15.72zm-9.253-3.63c-2.94 3.29-7.3 5.17-10.227 8.46.55 1.63 2.438.74 3.653.73a71.873 71.873 0 0 1 10.227.48v1.45a77.2 77.2 0 0 1-12.906.25c-1.293 3.64-5.974 5.87-9.01 2.66-3.772-4 1.485-10.79 6.331-7.5 3.721-2.51 7.117-5.35 10.715-7.98.656.24.81.97 1.224 1.45zm-13.88 13.3c2.891-.54 2.794-6.65-1.7-5.08-3.415 1.2-1.108 5.61 1.707 5.08zM756 4132.34h8.279c2.908 0 8.8-1.07 7.792 1.93-4.4 1.12-10.867.17-16.071.49v-2.42zm0 9.43h7.061c2.879 0 7.526-.96 6.575 1.94-3.588 1.11-9.241.17-13.636.48v-2.42zm48.7 4.11c1.872 3.49 3.038 6.95 5.6 9.68a31.409 31.409 0 0 0 9.01 6.28c.16.89-.527.93-.487 1.7a22.77 22.77 0 0 1-15.584-17.42c.744.18.716-.41 1.461-.24zm45.778 1.94c-2.459 7.87-7.534 13.15-15.34 15.72a5.386 5.386 0 0 0-.487-1.45c6.244-3.31 11.617-7.49 13.879-14.76.877-.06 1.17.45 1.948.49zM756 4151.2c5.276.16 11.2-.32 16.071.25v2.17H756v-2.42zm72.077 9.68c-.14 1.87.294 4.32-.243 5.8h-1.949c-.285-1.86-1.292-7.68 2.191-5.8z" transform="translate(-756 -4098)"/></svg><svg viewBox="-1 -1 135.01 7.01" width="135.01" height="7.01" id="dantuku_juosta" y="109.35" xmlns="http://www.w3.org/2000/svg"><defs><style>.fcls-1{fill:#fff;fill-rule:evenodd}</style></defs><g id="fLayer_2" data-name="Layer 2"><g id="fHeader"><g id="fOrder_Cart" data-name="Order Cart"><path class="fcls-1" d="M0 0v2h.5l3 3 3-3 3 3 3-3 3 3 3-3 3 3 3-3 3 3 3-3 3 3 3-3 3 3 3-3 3 3 3-3 3 3 3-3 3 3 3-3 3 3 3-3 3 3 3-3 3 3 3-3 3 3 3-3 3 3 3-3 3 3 3-3 3 3 3-3 3 3 3-3 3 3 3-3 3 3 3-3 3 3 3-3 3 3 3-3h.5V0zm3 2zm6 0zm6 0zm6 0zm6 0zm6 0zm6 0zm6 0zm6 0zm6 0zm6 0zm6 0zm6 0zm6 0zm6 0zm6 0zm6 0zm6 0zm6 0zm6 0zm6 0zm6 0z" id="fbill_paper" data-name="bill paper"/></g></g></g></svg><svg viewBox="-1 -1 25.99 46" width="25.99" height="46" id="drink" x="308" y="93.97999999999999" xmlns="http://www.w3.org/2000/svg"><defs><style>.gcls-1{fill:#fff;fill-rule:evenodd}</style></defs><g id="gLayer_2" data-name="Layer 2"><g id="gHeader"><g id="gFood_Menu" data-name="Food Menu"><g id="gDrinks"><path class="gcls-1" d="M23.73 35.15c-.13-.66-1.79-2.38-1.78-2.65a9.7 9.7 0 0 0 1-1.09 4.14 4.14 0 0 0 .81-3.27c-.18-1-1.79-2.19-1.78-2.65 0-.26 1.41-1.38 1.62-2 .71-2.23-.3-3.68-1.62-5 4.6-3.37-.6-10.63-4.53-11.52-.21-2.82.89-6-2.1-6.69a16.9 16.9 0 0 0-7 .16C6 1.24 6.64 4 6.57 7.14c-4.43.8-8.7 7.75-4.53 11.52C.81 19.79-.15 20.86.26 23c.22 1.17 1.8 2.24 1.78 2.65S.43 27.2.26 28.15C-.21 30.62 1 31.27 2 32.66.16 33.87-.38 37.21.26 40.44c.84 4.24 6.19 3.42 11.49 3.42a70.7 70.7 0 0 0 7.93 0c3.78-.49 4.89-4.41 4.05-8.71zM8.51 2.31a16.21 16.21 0 0 1 7 0c.33 1.08.09 2.72.16 4H8.35c.07-1.31-.17-2.92.16-4zm13.44 38c-1 2.63-5.17 1.87-10 1.87-4.44 0-9.18.84-9.87-2-.22-.93-.3-4.58.32-5.6.46-.75 3.27-.91 3.24-2s-.45-.11-2.27-1.09a2.81 2.81 0 0 1-.49-4.36c1.14-1 2.85-.19 2.75-1.56-.06-.84-2.23-.95-2.75-1.4a2.8 2.8 0 0 1 0-4c.62-.53 2.7-.53 2.75-1.4.08-1.21-1.62-.78-2.43-1.24-2.23-1.28-.71-5.23.65-6.69 3.36-3.63 12.66-3.54 16-.31 1.17 1.12 3.31 5 1.46 6.69-.52.47-3.16.52-2.91 1.71.17.83 1.6.57 2.27.93 1.17.64 2 3 .49 4.36-.58.49-2.58.46-2.75 1.25-.31 1.43 1.27.63 2.59 1.56a2.87 2.87 0 0 1-.32 4.51c-.75.42-2.12.19-2.27.93-.24 1.18 1.93 1 2.75 1.71 1.48 1.2.49 3.88.79 6.11z" id="gdrink_icon" data-name="drink icon"/></g></g></g></g></svg><svg id="drink-grey" viewBox="-1 -1 26 46" width="26" height="46" x="308" y="139.98" xmlns="http://www.w3.org/2000/svg"><style>.hst0{fill:#a3a3a3}</style><g id="hLayer_2"><g id="hHeader"><g id="hFood_Menu"><g id="hDrinks"><path class="hst0" d="M23.7 35.1c-.1-.7-1.8-2.4-1.8-2.7.4-.3.7-.7 1-1.1.7-.9 1-2.1.8-3.3-.2-1-1.8-2.2-1.8-2.6 0-.3 1.4-1.4 1.6-2 .7-2.2-.3-3.7-1.6-5 4.6-3.4-.6-10.6-4.5-11.5-.2-2.8.9-6-2.1-6.7-2.3-.4-4.7-.4-7 .2C6 1.2 6.6 4 6.6 7.1c-4.5.8-8.7 7.8-4.6 11.6C.8 19.8-.2 20.9.2 23 .4 24.2 2 25.2 2 25.6S.4 27.2.2 28.1c-.4 2.5.8 3.2 1.8 4.6C.2 33.9-.4 37.2.3 40.5c.8 4.2 6.2 3.4 11.5 3.4 2.6.1 5.3.1 7.9 0 3.8-.5 4.9-4.5 4-8.8zM8.5 2.3c2.3-.5 4.7-.5 7 0 .3 1.1.1 2.7.2 4H8.4c0-1.3-.2-2.9.1-4zm13.5 38c-1 2.6-5.2 1.9-10 1.9-4.4 0-9.2.8-9.9-2-.2-.9-.3-4.6.3-5.6.5-.8 3.3-.9 3.2-2s-.4-.1-2.3-1.1c-1.3-.8-1.7-2.6-.9-3.9.1-.2.2-.3.4-.5 1.1-1 2.8-.2 2.8-1.6-.1-.8-2.2-1-2.8-1.4-1.1-1.1-1.1-2.9 0-4 .6-.5 2.7-.5 2.8-1.4.1-1.1-1.6-.7-2.4-1.2-2.2-1.3-.7-5.2.6-6.7 3.4-3.6 12.7-3.5 16-.3 1.2 1.1 3.3 5 1.5 6.7-.5.5-3.2.5-2.9 1.7.2.8 1.6.6 2.3.9 1.2.6 2 3 .5 4.4-.6.5-2.6.5-2.8 1.2-.3 1.4 1.3.6 2.6 1.6 1.2 1.1 1.3 2.9.2 4.1l-.5.5c-.8.4-2.1.2-2.3.9-.2 1.2 1.9 1 2.8 1.7 1.4 1.2.4 3.9.8 6.1z" id="hdrink_icon"/></g></g></g></g></svg><svg width="126" height="81" viewBox="-1 -1 126 81" id="food" y="116.36" xmlns="http://www.w3.org/2000/svg"><defs><style>.icls-1{fill:#bdbdbd;fill-rule:evenodd}</style></defs><path id="ifood_icon" data-name="food icon" class="icls-1" d="M1398.72 4094h18.96c-.17.72.33 2.11-.27 2.39-2.13.16-3.17-.55-3.74.8-.98 2.32 1.84 2 4.01 2.39 26.9 4.83 41.08 27.7 41.64 57.43 2.11.33 4.25-.97 4.01 1.33-.19 1.76-3.99 1.06-7.21 1.06h-8.28c.59 2.07 1.44 3.89 1.6 6.38 1.25.47 4.58-1.1 4.81 1.06.21 1.97-3.45 1.33-4.54 1.33h-83.82c-1.67 0-5.23.57-4.54-1.59.52-1.64 2.86-.43 5.07-.8a12.9 12.9 0 0 1-.27-6.38h-7.47c-3.19 0-6.64.81-6.41-1.33.21-1.99 2.07-.71 4.27-1.06 1.02-30.94 14.21-51.22 39.78-56.89 2.3-.51 7.43.23 7.21-3.2-.5-1.36-3.88.14-4.81-.79V4094zm6.94 4.79h5.88v-2.4h-5.88v2.4zm39.51 19.93a44.743 44.743 0 0 0-33.1-17.54c-19.41-1.2-33.58 6.75-41.65 17.28-7.47 9.75-11.23 22.32-11.47 38.55h98.24c-.16-15.74-4.43-28.53-12.02-38.29zm-76.88 41.48c-.76 1.9.15 3.98.53 5.58 18.07-.18 36.84.35 54.46-.27a10.558 10.558 0 0 0-.53-6.11h-53.93a.73.73 0 0 0-.53.8zm57.13 5.58h21.62a11.158 11.158 0 0 0-2.13-6.38h-19.76a12.9 12.9 0 0 1 .27 6.38zm-19.49-54.76a.4.4 0 0 1 .53.26c3.94 3.03 6.6 6.55 7.21 11.7 1.15 9.65-6.18 17.05-2.93 26.85a34.242 34.242 0 0 1-6.95-12.5c-2.46-8.7 8.16-17.67 2.14-26.31zm1.87 29.24c1.29-6.07 6-13.85 2.13-20.21-1.18 6.49-6.9 14.07-2.13 20.21zm-26.43-18.35c-5.48 4.38-9.17 10.54-11.75 17.82-.85-.04-1.17-.61-2.13-.54 2.16-8.21 6.82-13.94 12.01-19.14a2.677 2.677 0 0 1 1.87 1.86zm28.56-1.86c3.87 6.36-.84 14.14-2.13 20.21m-16.55-18.88c3 1.22 5.22 5.54 5.6 8.51.88 6.74-4.19 12.55-2.13 19.94-2.22-2.89-4.96-6.08-5.34-10.1-.58-6.05 5.92-12.48 1.87-18.35zm1.33 19.41c.63-3.12 2.93-7.03 1.6-10.37-.61 3.03-3.77 7.16-1.6 10.37zm29.63-19.41c2.91 1.36 5.24 5.89 5.61 9.04.76 6.51-4.51 12.08-2.4 19.14-2.34-2.95-4.56-5.62-5.07-9.3-.94-6.72 5.7-12.48 1.86-18.88zm1.07 19.41c.92-2.99 2.88-6.35 1.87-10.37-.99 2.96-3.59 7.19-1.87 10.37zm46.72 29.77v2.4h-120.93c-1.44-.08-3.63.6-2.94-1.6.27-1.48 2.15-.76 2.94-.8 1.28-.05 2.75 0 4 0H1470z" transform="translate(-1346 -4094)"/></svg><svg viewBox="-1 -1 41 46" width="41" height="46" id="fries" x="138" y="275.36" xmlns="http://www.w3.org/2000/svg"><defs><style>.jcls-1{fill:#fff;fill-rule:evenodd}</style></defs><g id="jLayer_2" data-name="Layer 2"><g id="jHeader"><g id="jFood_Menu" data-name="Food Menu"><g id="jFries"><path class="jcls-1" d="M35.51 15.77c.35-2.91 1.08-5.43 1.43-8.35-1.37-1.32-4.54-.84-6.82-1.26-.15-1.32.32-3.35.32-5C28.54.16 25 0 22.67 0c-.74.37-.32 1.89-.63 2.68h-5.4a14.9 14.9 0 0 0-.31-2.51 34.4 34.4 0 0 0-7.77.16C7.89.91 8.46 2.09 8.4 3c-2.13.46-4.4.74-6.5 1.27-.1 3.78 1.1 7.63 1.43 11.5-1.24.08-3-.33-3.33.63v.31C2.69 25.64 5 34.9 7.77 43.8c7.45.26 16 .26 23.46 0 2.89-8.94 5.56-18.1 7.77-27.72-.71-.56-2.32-.22-3.49-.31zM29.8 7.89c1.9 0 3.41.39 5.23.47-.37 2.52-1 4.77-1.27 7.4-1.13.09-2.62-.19-3.49.16-.63.64-.74 1.79-1.27 2.52-.1-3.25.68-6.99.8-10.55zm-5.71-6.14c1.51.13 2.93.34 4.44.47-.32 6.45-1.24 12.31-1.58 18.78a11.34 11.34 0 0 1-4.6 2.52c.2-7.03.85-14.94 1.74-21.77zm-2.21 2.68c-.43 6.5-.89 13-1.58 19.21h-1.12c-.95-2.79-.93-6.1-1.27-9.29S17.12 8 17 4.9a.74.74 0 0 1-.16-.47zm-7.14-2.68c.92 7 1.44 14.43 2.38 21.42-2.21.3-3.75-1.42-5.23-2.36Q11.11 11.26 10 2.06a22 22 0 0 1 4.74-.31zm-6.18 3c.54 4.18.78 8.66 1.44 12.75-.54.27-.5-1.39-1.11-1.57-1-.35-2.57-.07-3.8-.16C4.69 12.32 4 9.16 3.65 5.69 5.17 5.26 7 5.1 8.56 4.74zm21.56 37.47H9C6.76 34 4.49 25.74 2.06 17.66c1.59-.37 3.86-.05 5.71-.16 2 4.91 6.52 8.54 13.47 7.87 5.16-.5 8.42-3.88 10.15-7.87h5.71c-2.36 8.21-4.73 16.41-6.98 24.72z" id="jfries_icon" data-name="fries icon"/></g></g></g></g></svg><svg id="fries-grey" viewBox="-1 -1 41 46" width="41" height="46" x="179" y="275.36" xmlns="http://www.w3.org/2000/svg"><style>.kst0{fill:#a3a3a3}</style><g id="kLayer_2"><g id="kHeader"><g id="kFood_Menu"><g id="kFries"><path class="kst0" d="M35.5 15.8c.3-2.9 1.1-5.4 1.4-8.4-1.4-1.3-4.5-.8-6.8-1.3-.1-1.3.3-3.3.3-5C28.5.2 25 0 22.7 0c-.7.4-.3 1.9-.6 2.7h-5.4c0-.8-.1-1.7-.3-2.5-2.7-.3-5.3-.2-7.8.1-.7.6-.1 1.8-.2 2.7-2.1.5-4.4.7-6.5 1.3C1.8 8 3 11.9 3.3 15.8c-1.2.1-3-.3-3.3.6v.3c2.7 8.9 5 18.2 7.8 27.1 7.4.3 16 .3 23.5 0 2.9-8.9 5.6-18.1 7.8-27.7-.8-.6-2.4-.2-3.6-.3zm-5.7-7.9c1.9 0 3.4.4 5.2.5-.4 2.5-1 4.8-1.3 7.4-1.1.1-2.6-.2-3.5.2-.6.6-.7 1.8-1.3 2.5 0-3.3.8-7.1.9-10.6zm-5.7-6.2c1.5.1 2.9.3 4.4.5-.3 6.5-1.2 12.3-1.5 18.8-1.3 1.2-2.9 2.1-4.6 2.5.1-7 .8-14.9 1.7-21.8zm-2.2 2.7c-.4 6.5-.9 13-1.6 19.2h-1.1c-1-2.8-.9-6.1-1.3-9.3S17.1 8 17 4.9c-.1-.1-.2-.3-.2-.5h5.1zm-7.2-2.7c.9 7 1.4 14.4 2.4 21.4-2.2.3-3.8-1.4-5.2-2.4-.5-6.3-1.2-12.5-1.9-18.6 1.6-.3 3.2-.4 4.7-.4zm-6.1 3c.5 4.2.8 8.7 1.4 12.8-.5.3-.5-1.4-1.1-1.6-1-.4-2.6-.1-3.8-.2-.4-3.4-1.1-6.5-1.4-10 1.5-.4 3.3-.6 4.9-1zm21.5 37.5H9C6.8 34 4.5 25.7 2.1 17.7c1.6-.4 3.9 0 5.7-.2 2 4.9 6.5 8.5 13.5 7.9 5.2-.5 8.4-3.9 10.1-7.9h5.7c-2.4 8.2-4.7 16.4-7 24.7z" id="kfries_icon"/></g></g></g></g></svg><svg viewBox="-1 -1 203 54.65" width="203" height="54.65" id="logo" y="54.7" xmlns="http://www.w3.org/2000/svg"><defs><style>.lcls-1{fill:#fff;fill-rule:evenodd}</style></defs><g id="lLayer_2" data-name="Layer 2"><g id="lHeader"><path class="lcls-1" d="M21.53 3.7C6.13 5.64 0 17.88 0 25.59a16.49 16.49 0 0 0 2.61 8.72l5.65-4.94A11 11 0 0 1 7 24.6c0-5.25 5-13.06 14.5-14.25 8.21-1 10.55 4.19 10.55 8.53 0 8.25-8.21 14.59-14.5 11.84l3.25-8.39a10.93 10.93 0 0 1 4.32-5.53l-1.55-4.41c-5.33.67-9.06 5.21-10.55 9.1L1.17 52.65l8.47-1.07L15.4 36.4c14.34 4.14 24.78-7.46 24.78-18.6 0-8.09-5.54-15.75-18.65-14.1zm30.05 11.86a5.64 5.64 0 0 0 4.69-5.3 4.05 4.05 0 0 0-4.69-4.07 5.4 5.4 0 0 0-4.69 5.25 4.09 4.09 0 0 0 4.69 4.12zM198 12.27c-2.18 4-4.8 6.34-7.41 7.09A25.22 25.22 0 0 0 193 9.26c0-6.21-3.57-9.51-10-8.7-8.87 1.12-14 9.05-15.78 15.88-4 7.32-6.51 10.87-8 11.05-.75.09-2-.6.43-6.91l1.49-4a8.08 8.08 0 0 0 .64-2.76c0-4-6.55-6.19-8.74-7.84l1.71-4.5L151.28 0c-2.18 1-5 4.22-5 7a4 4 0 0 0 1.65 3c-1.55 3.62-3 6.86-4.21 9.1-3.84 7.07-7.46 11.28-9.59 11.54-1 .12-1.87-.57.53-6.92l6.61-17.22-10 4.9s-1.14-4.18-6.27-3.53c-6.84.86-11.12 8.82-13.2 15.7-3.49 6.37-6.08 7.78-8 8-2.72.34-4.69-1.39-7.14-1.46l15.61-16.27-2.77-3.35c-5.22 2.64-9.22.46-13.59 1-6.39.81-7.62 6.74-12.1 15.13-3.62 6.78-6.29 8.24-8.26 8.48-2.72.34-4.69-1.39-7.14-1.46L84 17.42l-2.77-3.35c-5.22 2.64-9.22.47-13.59 1-6.39.81-7.62 6.74-12.1 15.13-3.78 7.06-7.46 11.28-9.59 11.55-.91.11-1.87-.52.59-6.93l6.55-17.22-8.49 1.09-6 15.7c-3.89 10.19-.48 13.61 4.37 13 6.13-.77 11.46-7.66 15.56-15.4 3.46-6.54 4.58-8 7-8.28 2.24-.28 4.21.49 5.86.6l-16.61 17.2 2.77 3.35c5.6-5.31 7.09-.2 13.7-1 6.77-.85 11-7.12 15.51-15.4 3.46-6.54 4.58-8 7-8.28 2.24-.28 4.21.49 5.86.6L83 38l2.77 3.35c5.6-5.31 7.09-.2 13.7-1 4.41-.56 7.75-3.42 10.79-7.63.25 3.48 2.26 6 6 5.52 4.69-.59 8.37-5.5 8.37-5.5s.69 4.36 6.23 3.66c6.5-.82 11.67-7.63 15.83-15.44a94 94 0 0 0 4.31-9.24c1.44 1.05 2.61 1.87 2.61 2.94a5.64 5.64 0 0 1-.48 1.94l-1.71 4.55c-3.84 10 .59 12.51 4.74 12s7.52-4.14 10.59-8.93c.91 4.53 4.36 7 10 6.34a16.71 16.71 0 0 0 11.14-6.71c5.44-.26 10.29-4.46 13.16-9.8a3.54 3.54 0 0 0-3.05-1.78zm-72.42 14s-2.45 4.17-5.38 4.53c-1.07.13-1.71-.37-1.71-1.77 0-3.43 3.94-13.94 8.15-14.47 2.34-.29 2.4 2.7 2.4 2.7zm58.19-12.15a5 5 0 0 0-4.51 4.88 3.81 3.81 0 0 0 1.17 2.85c-1.17 1.7-2.5 2.94-3.78 3.1s-2.08-.86-2.08-2.58c0-4 4.1-15.73 8.31-16.26C184 6 185 6.69 185 8.67a18.84 18.84 0 0 1-1.21 5.5z" id="lPizzaro_logo" data-name="Pizzaro logo"/></g></g></svg><svg id="logo-red" viewBox="-1 -1 203 54.7" width="203" height="54.7" xmlns="http://www.w3.org/2000/svg"><style>.mst0{fill:#c00a27}</style><g id="mLayer_2"><g id="mHeader"><path class="mst0" d="M21.5 3.7C6.1 5.6 0 17.9 0 25.6c0 3.1.9 6.1 2.6 8.7l5.7-4.9c-.8-1.5-1.2-3.1-1.3-4.8 0-5.2 5-13.1 14.5-14.2 8.2-1 10.5 4.2 10.5 8.5 0 8.2-8.2 14.6-14.5 11.8l3.2-8.4c.8-2.3 2.3-4.2 4.3-5.5l-1.5-4.4c-5.3.7-9.1 5.2-10.6 9.1L1.2 52.6l8.5-1.1 5.8-15.2c14.3 4.1 24.8-7.5 24.8-18.6-.1-8-5.7-15.7-18.8-14zm30.1 11.9c2.6-.4 4.6-2.7 4.7-5.3 0-2.2-1.7-4.1-4-4.1-.2 0-.5 0-.7.1-2.6.4-4.6 2.6-4.7 5.3 0 2.3 1.8 4.1 4 4.2.2-.2.5-.2.7-.2zM198 12.3c-2.2 4-4.8 6.3-7.4 7.1 1.5-3.2 2.3-6.6 2.4-10.1 0-6.2-3.6-9.5-10-8.7-8.9 1.1-14 9.1-15.8 15.9-4 7.3-6.5 10.9-8 11.1-.8.1-2-.6.4-6.9l1.5-4c.4-.9.6-1.8.6-2.8 0-4-6.6-6.2-8.7-7.8l1.7-4.5-3.4-1.6c-2.2 1-5 4.2-5 7 .1 1.2.7 2.3 1.6 3-1.6 3.6-3 6.9-4.2 9.1-3.8 7.1-7.5 11.3-9.6 11.5-1 .1-1.9-.6.5-6.9l6.6-17.2-10 4.9s-1.1-4.2-6.3-3.5c-6.8.9-11.1 8.8-13.2 15.7-3.5 6.4-6.1 7.8-8 8-2.7.3-4.7-1.4-7.1-1.5l15.6-16.3-2.8-3.4c-5.2 2.6-9.2.5-13.6 1-6.4.8-7.6 6.7-12.1 15.1-3.6 6.8-6.3 8.2-8.3 8.5-2.7.3-4.7-1.4-7.1-1.5L84 17.4l-2.8-3.3c-5.2 2.6-9.2.5-13.6 1-6.4.8-7.6 6.7-12.1 15.1-3.8 7.1-7.5 11.3-9.6 11.5-.9.1-1.9-.5.6-6.9L53 17.6l-8.5 1.1-6 15.7c-3.9 10.2-.5 13.6 4.4 13 6.1-.8 11.5-7.7 15.6-15.4 3.5-6.5 4.6-8 7-8.3 2.2-.3 4.2.5 5.9.6L54.8 41.5l2.8 3.3c5.6-5.3 7.1-.2 13.7-1 6.8-.8 11-7.1 15.5-15.4 3.5-6.5 4.6-8 7-8.3 2.2-.3 4.2.5 5.9.6L83 38l2.8 3.3c5.6-5.3 7.1-.2 13.7-1 4.4-.6 7.8-3.4 10.8-7.6.2 3.5 2.3 6 6 5.5 4.7-.6 8.4-5.5 8.4-5.5s.7 4.4 6.2 3.7c6.5-.8 11.7-7.6 15.8-15.4 1.6-3 3-6.1 4.3-9.2 1.4 1.1 2.6 1.9 2.6 2.9 0 .7-.2 1.3-.5 1.9l-1.7 4.6c-3.8 10 .6 12.5 4.7 12s7.5-4.1 10.6-8.9c.9 4.5 4.4 7 10 6.3 4.5-.6 8.5-3.1 11.1-6.7 5.4-.3 10.3-4.5 13.2-9.8-.6-1.1-1.7-1.8-3-1.8zm-72.4 14s-2.4 4.2-5.4 4.5c-1.1.1-1.7-.4-1.7-1.8 0-3.4 3.9-13.9 8.2-14.5 2.3-.3 2.4 2.7 2.4 2.7l-3.5 9.1zm58.2-12.2c-2.5.2-4.5 2.3-4.5 4.9 0 1.1.4 2.1 1.2 2.9-1.2 1.7-2.5 2.9-3.8 3.1s-2.1-.9-2.1-2.6c0-4 4.1-15.7 8.3-16.3 1.1-.1 2.1.6 2.1 2.6-.1 1.9-.5 3.7-1.2 5.4z" id="mPizzaro_logo"/></g></g></svg><svg viewBox="-1 -1 31 24" width="31" height="24" id="motoroler" x="308" y="209.98" xmlns="http://www.w3.org/2000/svg"><defs><style>.ncls-1{fill:#fff;fill-rule:evenodd}</style></defs><g id="nLayer_2" data-name="Layer 2"><g id="nHeader"><g id="nOrder_Cart" data-name="Order Cart"><path class="ncls-1" d="M29 15.41c-.44-2.15-2.41-2.78-4.79-3 0-1.38-.88-2-1.48-2.95a25.79 25.79 0 0 1-3.13-6.51c.86.08 2 .43 2.39-.28a3.1 3.1 0 0 0 .06-2c-.18-.54-.75-.58-1.2-.67h-.28c-1.27.15-2.4.44-2.62 1.64-.59.26-1.11.49-1.82.79-.53.22-1.53.45-1.54 1.08 0 .92 1.12.56 1.65.28s1.15-.74 1.6-.91c.69 2.72 2.29 6.44.68 9.46-.87 1.66-2.79 2.28-5.52 2.16-2.24-.1-3-1.1-2.56-3.51.1-.51.33-1.13.11-1.42-.35-.46-1.5 0-2.11.17A18 18 0 0 1 1 9.52c-.47 1-1.32 3.1-.91 4.64.22.82 1 1.13 1.65 1.53A4.37 4.37 0 0 0 5.06 22a4.25 4.25 0 0 0 4.74-4.55 28.69 28.69 0 0 0 9.35-.57C19 18 19.4 19 20.51 18.75A4.23 4.23 0 0 0 25.07 22a4.33 4.33 0 0 0 3.19-6.51c.23.02.59.09.74-.08zM5.58 20.22a2.49 2.49 0 0 1-2.11-3.85c.52.18 1.14.26 1.65.45.06.24-.36.43-.4.79a.84.84 0 0 0 .74 1c.93.07 1.09-1 1.71-1.42a7.92 7.92 0 0 1 .8.11 2.42 2.42 0 0 1-2.39 2.92zm19.09 0a2.52 2.52 0 0 1-2.51-2 1.58 1.58 0 0 1 .4-1.53c.77.43 1 1.87 2 1.93a.82.82 0 0 0 .91-.85c0-.78-1.18-1.25-1.2-1.81.54 0 .88-.37 1.37-.34.87.06 1.46 1.17 1.48 2.1a2.52 2.52 0 0 1-2.45 2.5zM2.5 8.55a26.42 26.42 0 0 0 3 .11c2.2 0 4.24 0 5.47-.85.15-1.69-2.45-1.25-4.22-1.25-2.07 0-4-.18-5.47 0C.75 6.64.1 7.12.22 7.7s1.63.77 2.28.85z" id="nscooter_icon" data-name="scooter icon"/></g></g></g></svg><svg id="motoroler-grey" viewBox="-1 -1 31 24" width="31" height="24" x="308" y="185.98" xmlns="http://www.w3.org/2000/svg"><style>.ost0{fill:#a3a3a3}</style><g id="oLayer_2"><g id="oHeader"><g id="oOrder_Cart"><path class="ost0" d="M29 15.4c-.4-2.1-2.4-2.8-4.8-3 0-1.4-.9-2-1.5-2.9-1.3-2-2.4-4.2-3.1-6.5.9.1 2 .4 2.4-.3.2-.6.3-1.3.1-2-.2-.5-.8-.6-1.2-.7h-.3c-1.3.2-2.4.4-2.6 1.6-.6.3-1.1.5-1.8.8-.5.2-1.5.5-1.5 1.1 0 .9 1.1.6 1.7.3s1.1-.7 1.6-.9c.7 2.7 2.3 6.4.7 9.5-.9 1.7-2.8 2.3-5.5 2.2-2.2-.1-3-1.1-2.6-3.5.1-.5.3-1.1.1-1.4-.4-.5-1.5 0-2.1.2-2.6.3-5.2.2-7.6-.4-.5 1-1.3 3.1-.9 4.6.2.8 1 1.1 1.7 1.5-1.1 2.2-.2 4.8 1.9 5.9.4.2.9.4 1.4.4 2.3.3 4.4-1.4 4.7-3.7v-.8c3.1.3 6.3.1 9.4-.6-.2 1.2.2 2.2 1.3 1.9.5 2.1 2.4 3.5 4.6 3.2 2.4-.3 4.1-2.5 3.8-4.8-.1-.6-.3-1.2-.6-1.7.2.1.6.2.7 0zM5.6 20.2c-1.4 0-2.5-1.1-2.5-2.5 0-.5.1-1 .4-1.4.5.2 1.1.3 1.6.5.1.2-.4.4-.4.8-.1.5.2.9.7 1h.1c.9.1 1.1-1 1.7-1.4.3 0 .5.1.8.1.3 1.3-.6 2.6-1.9 2.9h-.5zm19.1 0c-1.2 0-2.3-.8-2.5-2-.1-.5 0-1.1.4-1.5.8.4 1 1.9 2 1.9.5.1.9-.3.9-.7v-.1c0-.8-1.2-1.2-1.2-1.8.5 0 .9-.4 1.4-.3.9.1 1.5 1.2 1.5 2.1-.1 1.3-1.2 2.4-2.5 2.4zM2.5 8.5c1 .1 2 .1 3 .1 2.2 0 4.2 0 5.5-.9.1-1.7-2.4-1.2-4.2-1.2-2.1 0-4-.2-5.5 0-.5.1-1.2.6-1.1 1.2s1.7.8 2.3.8z" id="oscooter_icon"/></g></g></g></svg><svg viewBox="-1 -1 46 46" width="46" height="46" id="pizza" x="220" y="275.36" xmlns="http://www.w3.org/2000/svg"><defs><style>.pcls-1{fill:#fff;fill-rule:evenodd}</style></defs><g id="pLayer_2" data-name="Layer 2"><g id="pHeader"><g id="pFood_Menu" data-name="Food Menu"><g id="pPizza"><path class="pcls-1" d="M42.51 21.14a38.47 38.47 0 0 0-7.58-11.82C30.75 5.21 24.82 1.24 18.34 0c-1.65-.31-2.39 4-3 5.67-.75 2-1.58 4-2.21 5.52-3.8 9.32-7.69 18.43-11.38 27.13C1 40.07-.14 42 0 44c2.08.13 3.76-1.16 5.53-1.89s3.72-1.45 5.53-2.21c9.13-3.8 17.84-7.9 27.5-11.2 1.69-.58 5-1.41 5.37-2.52s-.83-3.65-1.42-5.04zM13.28 15.3c4.85-2.28 7.15 5.88 2.37 6.78a3.81 3.81 0 0 1-4.27-2.36c.62-1.47 1.23-2.99 1.9-4.42zM9.49 32.17A1.87 1.87 0 0 1 6 33.43c-.53-2.77 3.05-3.31 3.49-1.26zm6.16-.31a2.37 2.37 0 0 1 1.9-2.52c2-.52 3.35.53 3.48 2.21.27 3.75-5.32 3.91-5.38.3zm6.79 1.42c2.48-8-11-7.06-8.22.16a4 4 0 0 0 2.21 2.21c-4.36 2.27-9.42 3.84-13.9 6 .25-2.07 1.77-4.22 2.37-6.46.73 0 1.18.8 2.05.95 5.18.86 5.85-7.13.47-6.93 1.12-2.41 2-5 3.16-7.41a5.35 5.35 0 0 0 9.48-3.94c-.33-2.85-2.5-4.53-6-4.57.67-1.48 1.29-3 1.9-4.57A30.63 30.63 0 0 1 35.4 28.07c-4.4 1.63-8.52 3.59-12.95 5.2zm14.53-6A32.37 32.37 0 0 0 16.76 7.11c.44-1.92 1.17-3.56 1.74-5.36 12.12 3.73 19.94 11.74 23.7 23.8a42.26 42.26 0 0 1-5.2 1.73z" id="ppizza_icon" data-name="pizza icon"/></g></g></g></g></svg><svg id="pizza-grey" viewBox="-1 -1 46 46" width="46" height="46" y="275.36" xmlns="http://www.w3.org/2000/svg"><style>.qst0{fill:#a3a3a3}</style><g id="qLayer_2"><g id="qHeader"><g id="qFood_Menu"><g id="qPizza"><path class="qst0" d="M42.5 21.1c-1.8-4.4-4.3-8.4-7.6-11.8C30.8 5.2 24.8 1.2 18.3 0c-1.6-.3-2.4 4-3 5.7l-2.2 5.5C9.3 20.5 5.4 29.6 1.8 38.3 1 40.1-.1 42 0 44c2.1.1 3.8-1.2 5.5-1.9s3.7-1.5 5.5-2.2c9.1-3.8 17.8-7.9 27.5-11.2 1.7-.6 5-1.4 5.4-2.5s-.8-3.7-1.4-5.1zm-29.2-5.8c4.8-2.3 7.2 5.9 2.4 6.8-1.8.3-3.6-.6-4.3-2.4.6-1.5 1.2-3 1.9-4.4zM9.5 32.2c.2 1-.4 2-1.4 2.2-.8.2-1.7-.2-2.1-1-.5-2.7 3.1-3.3 3.5-1.2zm6.1-.3c-.1-1.2.7-2.3 1.9-2.5 2-.5 3.4.5 3.5 2.2.3 3.7-5.3 3.9-5.4.3zm6.8 1.4c2.5-8-11-7.1-8.2.2.4 1 1.2 1.8 2.2 2.2C12 38 7 39.5 2.5 41.7c.2-2.1 1.8-4.2 2.4-6.5.7 0 1.2.8 2.1 1 5.2.9 5.9-7.1.5-6.9 1.1-2.4 2-5 3.2-7.4 1.9 2.3 5.2 2.7 7.5.8 1.4-1.1 2.2-2.9 2-4.7-.3-2.8-2.5-4.5-6-4.6.7-1.5 1.3-3 1.9-4.6 9.2 3 16.4 10.2 19.4 19.3-4.5 1.6-8.6 3.6-13.1 5.2zm14.6-6c-3.2-9.5-10.7-16.9-20.2-20.2.4-1.9 1.2-3.6 1.7-5.4 12.1 3.7 19.9 11.7 23.7 23.8-1.7.7-3.4 1.3-5.2 1.8z" id="qpizza_icon"/></g></g></g></g></svg><svg viewBox="-1 -1 46 46" width="46" height="46" id="salad" x="46" y="275.36" xmlns="http://www.w3.org/2000/svg"><defs><style>.rcls-1{fill:#fff;fill-rule:evenodd}</style></defs><g id="rLayer_2" data-name="Layer 2"><g id="rHeader"><g id="rFood_Menu" data-name="Food Menu"><g id="rSalads"><path class="rcls-1" d="M7.07 14.75c.25 11.37 20.93 13 28.77 7-2.18-3.41-3.9-7.87-7-11.58-2.57-3-6.89-7.41-11.26-7.51-3.47-.08-5 1.93-6.41 4.23a11.86 11.86 0 0 1-2-4.07c-.41-1.39-.3-3.7-1.94-2.47C6.87 4 8.83 6.55 10.2 9c-2.08.68-3.2 3.48-3.13 5.75zm4.07-4.54a83.49 83.49 0 0 0 10.79 8.14C23 19 24.57 20.55 26 19.6c-.26-1.69-2.26-2.1-3.44-2.82a47.27 47.27 0 0 1-7-5.17c-.92-.8-2.88-2.09-3-3.13-.18-2.07 3-4.52 5.79-4.07A8.19 8.19 0 0 1 20 5c6 2.84 10.81 11 13.45 16.12-7.3 4-21.93 2.82-24.39-4.7-.72-2.27.05-5.29 2.07-6.21zm32.52 10.18c-1-3.12-5.29-3.69-8.6-4.85a1.11 1.11 0 0 0-.47.31c-.08.23-.23.39-.31.63 1.42 2 8 1.85 7.82 5.17-.06 1.24-2 2.35-3.44 3-7.52 3.24-19.5 3.29-28.3 1.41-3.17-.68-8.46-1.9-8.44-4.54s3.73-1.72 4.38-4.38c-1.13-1.08-2.6.23-3.44.78a5.15 5.15 0 0 0-2.5 2.66C-.87 24.77 1.41 29.64 2.54 32a22.53 22.53 0 0 0 5.94 8.14C14.42 45 26.35 45 33 41.67c3.5-1.76 6.12-5.22 7.82-8.3C42.18 31 45 24.49 43.66 20.39zm-12.2 20c-6 2.64-15.69 2.44-21.11-1.1-4-2.59-7.19-8.83-8.29-14.56.13 0 .15.06.16.16 8.78 4.95 28.78 5.78 38.31.82.48-.25 1-1.11 1.41-.63-1.72 6.71-4.54 12.75-10.48 15.34z" id="rsalad_icon" data-name="salad icon"/></g></g></g></g></svg><svg id="salad-grey" viewBox="-1 -1 46 46" width="46" height="46" x="92" y="275.36" xmlns="http://www.w3.org/2000/svg"><style>.sst0{fill:#a3a3a3}</style><g id="sLayer_2"><g id="sHeader"><g id="sFood_Menu"><g id="sSalads"><path class="sst0" d="M7.1 14.7c.2 11.4 20.9 13 28.8 7-2.2-3.4-3.9-7.9-7-11.6-2.6-3-6.9-7.4-11.3-7.5-3.5-.1-5 1.9-6.4 4.2-.9-1.2-1.6-2.6-2-4.1-.4-1.3-.3-3.6-2-2.4-.3 3.7 1.6 6.2 3 8.7-2.1.7-3.2 3.5-3.1 5.7zm4-4.5c3.4 3 7 5.7 10.8 8.1 1.1.6 2.6 2.2 4.1 1.2-.3-1.7-2.3-2.1-3.4-2.8-2.5-1.5-4.8-3.2-7-5.2-.9-.8-2.9-2.1-3-3.1-.2-2.1 3-4.5 5.8-4.1.5.2 1.1.4 1.6.7 6 2.8 10.8 11 13.5 16.1-7.3 4-21.9 2.8-24.4-4.7-.8-2.3 0-5.3 2-6.2zm32.6 10.2c-1-3.1-5.3-3.7-8.6-4.8-.2.1-.3.2-.5.3l-.3.6c1.4 2 8 1.9 7.8 5.2-.1 1.2-2 2.4-3.4 3-7.5 3.2-19.5 3.3-28.3 1.4-3.2-.7-8.5-1.9-8.4-4.5s3.7-1.7 4.4-4.4c-1.1-1.1-2.6.2-3.4.8-1.1.6-2 1.5-2.5 2.7-1.2 4.2 1.1 9.1 2.2 11.4C4 35.2 6.1 38 8.6 40.2 14.4 45 26.4 45 33 41.7c3.5-1.8 6.1-5.2 7.8-8.3 1.4-2.4 4.2-8.9 2.9-13zm-12.2 20c-6 2.6-15.7 2.4-21.1-1.1-4-2.6-7.2-8.8-8.3-14.6.1 0 .2.1.2.2 8.8 5 28.8 5.8 38.3.8.5-.2 1-1.1 1.4-.6-1.8 6.7-4.6 12.7-10.5 15.3z" id="ssalad_icon"/></g></g></g></g></svg><svg viewBox="-1 -1 18.93 22" width="18.93" height="22" id="shopping-cart" x="308" y="233.98" xmlns="http://www.w3.org/2000/svg"><defs><style>.tcls-1{fill:#fff}</style></defs><g id="tLayer_2" data-name="Layer 2"><path class="tcls-1" d="M16 5h-3.28v-.83A4.15 4.15 0 0 0 8.51 0 4.15 4.15 0 0 0 4.3 4.17v4.16H6V6.67h3.35V5H6v-.83a2.47 2.47 0 0 1 2.53-2.5A2.47 2.47 0 0 1 11 4.17v4.16h1.68V6.67h1.77l.76 11.67H1.85l.68-11.67h.08V5H1L0 20h16.93z" id="tBackground_color_Footer_Instagram_Gallery_Features_Product_Slider_Goes_Great_With_Deal_of_the_Day_Products_Tabs_Banners_Slider_Image" data-name="Background color + Footer + Instagram Gallery + Features + Product Slider + Goes Great With + Deal of the Day + Products Tabs + Banners + Slider Image"/></g></svg><svg id="sliced-pizza" viewBox="-1 -1 48 50.5" width="48" height="50.5" x="126" y="116.36" xmlns="http://www.w3.org/2000/svg"><style>.ust0{fill:#fff}</style><path class="ust0" d="M4.3 25.5c0 3.2.8 6.2 2.2 8.8l14.8-8.5-15-8.7c-1.3 2.5-2 5.4-2 8.4zM9 30.1c-.5.2-1 .4-1.5.5-.2.1-.8.2-.9-.2-.1-.3.5-.6.7-.6.4-.1.7-.2 1-.3.3-.1.8-.2 1.1 0 .3.2-.2.5-.4.6zm6.4-5.8c.7 0 1.3.6 1.3 1.3 0 .7-.6 1.3-1.3 1.3-.7 0-1.3-.6-1.3-1.3 0-.7.6-1.3 1.3-1.3zm-3.5 1.9c0 1.1-.9 1.9-1.9 1.9-1.1 0-1.9-.9-1.9-1.9s.9-1.9 1.9-1.9c1 0 1.9.9 1.9 1.9zm-3.8-6.6c.7 0 1.3.6 1.3 1.3 0 .7-.6 1.3-1.3 1.3-.7 0-1.3-.6-1.3-1.3 0-.7.6-1.3 1.3-1.3zm-2.4 5.5c-1.1 0 .1-.8.7-.8 1.1.1-.2.8-.7.8zM22.2 5.9V2.5c-8 .3-14.9 4.6-18.8 10.9l2.9 1.7c3.4-5.3 9.2-8.9 15.9-9.2zM41.3 12.6l2.9-1.7C40.3 4.6 33.4.3 25.5 0v3.4c6.7.2 12.5 3.9 15.8 9.2zM42.4 37.9l-2.9-1.7c-3.4 5.2-9.1 8.7-15.6 8.9v3.4c7.7-.3 14.5-4.5 18.5-10.6zM40.5 16.6c1.4 2.7 2.1 5.7 2.1 8.9 0 3.3-.8 6.5-2.3 9.2l2.9 1.7c1.8-3.3 2.8-7 2.8-10.9 0-3.8-.9-7.4-2.6-10.6l-2.9 1.7z"/><path class="ust0" d="M5.7 34.7c-1.5-2.8-2.3-5.9-2.3-9.2 0-3.2.8-6.2 2.1-8.9l-2.9-1.7C.9 18.1 0 21.7 0 25.5c0 4 1 7.7 2.8 10.9l2.9-1.7zM22.2 48.5v-3.4c-6.5-.3-12.3-3.8-15.6-8.9l-2.9 1.7C7.6 44 14.4 48.2 22.2 48.5zM22.2 6.8c-6.4.3-11.9 3.7-15 8.8l15 8.7V6.8zm-9.3 9.4c-1.1 0-1.9-.9-1.9-1.9 0-1.1.9-1.9 1.9-1.9 1.1 0 1.9.9 1.9 1.9 0 1-.9 1.9-1.9 1.9zm5.7 3.4c-.7 0-1.3-.6-1.3-1.3s.6-1.3 1.3-1.3c.7 0 1.3.6 1.3 1.3 0 .8-.6 1.3-1.3 1.3zm-.1-4.7c-.2-.3-.5-.5-.9-.6-.4-.1-.4-.5-.2-.8.3-.3.8-.4 1.1-.3.6.2 1.1.5 1.4.9.6.7-.9 1.4-1.4.8zm.7-3c-.7 0-1.3-.6-1.3-1.3 0-.7.6-1.3 1.3-1.3.7 0 1.3.6 1.3 1.3-.1.7-.6 1.3-1.3 1.3zM41.7 25.5c0-3-.7-5.9-2-8.4l-15 8.7 14.8 8.5c1.4-2.6 2.2-5.6 2.2-8.8zm-2.5-5.4c1.1 0-.2.7-.7.7-1.1 0 .2-.7.7-.7zm-8 6.9c-.7 0-1.3-.6-1.3-1.3 0-.7.6-1.3 1.3-1.3.7 0 1.3.6 1.3 1.3 0 .7-.6 1.3-1.3 1.3zm3.5-2.6c.8 0-.7.7-1.1.7-.7 0 .8-.7 1.1-.7zm-.7 4.2c-1.1 0 0-1 .6-1 1.1 0 0 1-.6 1zm3.3 3.2c-.7 0-1.3-.6-1.3-1.3 0-.7.6-1.3 1.3-1.3.7 0 1.3.6 1.3 1.3 0 .7-.6 1.3-1.3 1.3zm.7-5c-1.1 0-1.9-.9-1.9-1.9 0-1.1.9-1.9 1.9-1.9 1.1 0 1.9.9 1.9 1.9 0 1-.9 1.9-1.9 1.9z"/><path class="ust0" d="M22.2 44.2v-17L7.4 35.8c3.2 4.8 8.6 8.1 14.8 8.4zm-2.7-1.4c-1.1 0 .1-.8.7-.8 1 0-.2.8-.7.8zm-.3-11c.7 0 1.3.6 1.3 1.3 0 .7-.6 1.3-1.3 1.3-.7 0-1.3-.6-1.3-1.3 0-.7.6-1.3 1.3-1.3zm-3.3 3c1.1 0 .1 1-.6 1-1.1 0 0-1 .6-1zm.8 1.6c1.1 0 1.9.9 1.9 1.9 0 1.1-.9 1.9-1.9 1.9-1.1 0-1.9-.9-1.9-1.9 0-1 .8-1.9 1.9-1.9zM11.3 35c.7 0 1.3.6 1.3 1.3 0 .7-.6 1.3-1.3 1.3-.7 0-1.3-.6-1.3-1.3 0-.8.6-1.3 1.3-1.3zM38.6 35.8l-14.8-8.5v16.9c6.2-.3 11.6-3.6 14.8-8.4zm-12 5.7c-.7 0-1.3-.6-1.3-1.3 0-.7.6-1.3 1.3-1.3.7 0 1.3.6 1.3 1.3-.1.7-.6 1.3-1.3 1.3zm.8-5.3c-1.1 0-1.9-.9-1.9-1.9 0-1.1.9-1.9 1.9-1.9 1.1 0 1.9.9 1.9 1.9 0 1.1-.8 1.9-1.9 1.9zm2 2.8c-.8 0 .7-.6 1.1-.6.7 0-.8.6-1.1.6zm4.8-1.3c-.7 0-1.3-.6-1.3-1.3 0-.7.6-1.3 1.3-1.3.7 0 1.3.6 1.3 1.3-.1.7-.6 1.3-1.3 1.3zM25.5 4.3v17.5l15-8.7c-3.1-5.1-8.6-8.5-15-8.8zm4.9 2.5c.7 0 1.3.6 1.3 1.3s-.6 1.3-1.3 1.3c-.7 0-1.3-.6-1.3-1.3 0-.7.6-1.3 1.3-1.3zm-2.7-1.2c1.1 0 .1 1.1-.6 1.1-1.1 0-.1-1.1.6-1.1zm.8 11.9c-1.1 0-1.9-.9-1.9-1.9s.9-1.9 1.9-1.9c1.1 0 1.9.9 1.9 1.9s-.9 1.9-1.9 1.9zm1.9-5.7c-.3.3-.8.3-1.2.1-.4-.2-.8-.3-1.2-.4-.4-.1-.7-.3-.5-.7.2-.4.7-.6 1.1-.5.7.1 1.3.3 1.9.7.4.2.2.6-.1.8zm1.1 3c-1.1 0-.1-1.1.6-1.1 1.1 0 .1 1.1-.6 1.1zm2.7-1.8c-.7 0-1.3-.6-1.3-1.3s.6-1.3 1.3-1.3c.7 0 1.3.6 1.3 1.3s-.6 1.3-1.3 1.3zm2.2-.5c-.8 0 .7-.6 1.1-.6.7-.1-.8.6-1.1.6z"/></svg><svg id="taco" viewBox="-1 -1 49 39" width="49" height="39" x="131" y="197.36" xmlns="http://www.w3.org/2000/svg"><style>.vst0{fill:#fff}</style><g id="vLayer_2"><g id="vHeader"><g id="vFood_Menu"><g id="vTacos"><path class="vst0" d="M46.8 22.8c-.3-1.5-1.6-2.4-1.8-3.9-.5-2.6.3-4.2-.5-6.1-.5-1.1-1.2-2.1-2.2-2.8-.9-.7-2.2-.6-3.5-1.5-1-.7-1.2-2-1.8-2.9-.7-.8-1.6-1.5-2.5-2-1.5-.7-2.9-.5-4.2-.8C27.6 2 27 .1 24 0c-.9 0-1.7.1-2.5.3-1.6.5-2.5 1.8-4.3 2.4-1.4.4-2.6.1-4.2.8-1 .5-1.9 1.2-2.7 2-.5.7-.9 2.2-1.9 2.9-1.4 1-2.6.8-3.9 1.9C3.2 11.4 2.3 13 2 14.7c-.2 1.1.4 2.3.2 3.9-.2 1.8-2.2 3-2.2 5.7v.3c-.3 2.3 1.6 3.5 2 5.2.6 2.9-.6 5.7 2.2 6.8 2.1.8 6.6.2 9.6.2h19.5c3.5 0 7.6.5 9.6-.2 2.8-.9 1.7-3.1 2.3-6.6.4-2.2 2.4-3.7 1.6-7.2zM2.2 25c-.1 1.7-.4-.9-.2-1.9.2-.6.5-1.2 1-1.7.3-.5-.6 2.7-.8 3.6zm4.6-14c.8-.5 2-.5 2.9-1.2 1.1-.9 1.6-2.9 2.9-3.9 1.6-1.2 4-1 5.5-1.5 2.5-.8 4-3.5 7.7-2.2 1.2.5 2.1 1.8 3.3 2.2 2.3.8 4.4.3 6 1.9 1.2 1.1 1.4 2.8 2.4 3.5s2.4.6 3.7 1.5c2.1 1.5 2.5 4.4 2 7.6-3.7-6.5-9.6-12.3-19.3-12.3C14 6.5 7.6 12.2 4.1 19.1c-.7-3.6 0-6.7 2.7-8.1zm36 23.6c-8.9.6-19 .3-29 .3-2.4 0-8.2.7-9.4-.3-.8-.7-.5-3.1-.5-3.9 0-1.2-.1-3.2 0-4.2.8-10.1 9.2-17.9 19.3-18 10.4-.3 19.1 7.5 20.1 17.8.3 2.8.2 5.6-.5 8.3zm2.4-9c-.5-1.3-.5-3.1-1.2-4.2.7-.2 1.4 2.4 1.2 4.2zm-29-3.2c-.1-.9-.9-1.7-1.8-1.6-.1 0-.2 0-.3.1-.8.1-1.5.7-1.7 1.5-.4 3.2 4 2.6 3.8 0zM9.6 25c-1.2.1-1.7.6-1.8 1.5-.4 3.2 4.2 2.6 3.7-.2-.1-.9-.9-1.5-1.7-1.4-.1.1-.2.1-.2.1zm4.9 2.7c-2.5.9-.6 3.6.8 3.5 2.1-.1 2.6-4.7-.8-3.5z" id="vtaco_icon"/></g></g></g></g></svg><svg id="taco-grey" viewBox="-1 -1 49 39" width="49" height="39" x="82" y="197.36" xmlns="http://www.w3.org/2000/svg"><style>.wst0{fill:#a3a3a3}</style><g id="wLayer_2"><g id="wHeader"><g id="wFood_Menu"><g id="wTacos"><path class="wst0" d="M46.8 22.8c-.3-1.5-1.6-2.4-1.8-3.9-.5-2.6.3-4.2-.5-6.1-.5-1.1-1.2-2.1-2.2-2.8-.9-.7-2.2-.6-3.5-1.5-1-.7-1.2-2-1.8-2.9-.7-.8-1.6-1.5-2.5-2-1.5-.7-2.9-.5-4.2-.8C27.6 2 27 .1 24 0c-.9 0-1.7.1-2.5.3-1.6.5-2.5 1.8-4.3 2.4-1.4.4-2.6.1-4.2.8-1 .5-1.9 1.2-2.7 2-.5.7-.9 2.2-1.9 2.9-1.4 1-2.6.8-3.9 1.9C3.2 11.4 2.3 13 2 14.7c-.2 1.1.4 2.3.2 3.9-.2 1.8-2.2 3-2.2 5.7v.3c-.3 2.3 1.6 3.5 2 5.2.6 2.9-.6 5.7 2.2 6.8 2.1.8 6.6.2 9.6.2h19.5c3.5 0 7.6.5 9.6-.2 2.8-.9 1.7-3.1 2.3-6.6.4-2.2 2.4-3.7 1.6-7.2zM2.2 25c-.1 1.7-.4-.9-.2-1.9.2-.6.5-1.2 1-1.7.3-.5-.6 2.7-.8 3.6zm4.6-14c.8-.5 2-.5 2.9-1.2 1.1-.9 1.6-2.9 2.9-3.9 1.6-1.2 4-1 5.5-1.5 2.5-.8 4-3.5 7.7-2.2 1.2.5 2.1 1.8 3.3 2.2 2.3.8 4.4.3 6 1.9 1.2 1.1 1.4 2.8 2.4 3.5s2.4.6 3.7 1.5c2.1 1.5 2.5 4.4 2 7.6-3.7-6.5-9.6-12.3-19.3-12.3C14 6.5 7.6 12.2 4.1 19.1c-.7-3.6 0-6.7 2.7-8.1zm36 23.6c-8.9.6-19 .3-29 .3-2.4 0-8.2.7-9.4-.3-.8-.7-.5-3.1-.5-3.9 0-1.2-.1-3.2 0-4.2.8-10.1 9.2-17.9 19.3-18 10.4-.3 19.1 7.5 20.1 17.8.3 2.8.2 5.6-.5 8.3zm2.4-9c-.5-1.3-.5-3.1-1.2-4.2.7-.2 1.4 2.4 1.2 4.2zm-29-3.2c-.1-.9-.9-1.7-1.8-1.6-.1 0-.2 0-.3.1-.8.1-1.5.7-1.7 1.5-.4 3.2 4 2.6 3.8 0zM9.6 25c-1.2.1-1.7.6-1.8 1.5-.4 3.2 4.2 2.6 3.7-.2-.1-.9-.9-1.5-1.7-1.4-.1.1-.2.1-.2.1zm4.9 2.7c-2.5.9-.6 3.6.8 3.5 2.1-.1 2.6-4.7-.8-3.5z" id="wtaco_icon"/></g></g></g></g></svg><svg viewBox="-1 -1 31 46.98" width="31" height="46.98" id="wrap" x="308" y="47" xmlns="http://www.w3.org/2000/svg"><defs><style>.xcls-1{fill:#fff;fill-rule:evenodd}</style></defs><g id="xLayer_2" data-name="Layer 2"><g id="xHeader"><g id="xFood_Menu" data-name="Food Menu"><g id="xWraps"><path class="xcls-1" d="M.08 11.41c-.28 2.73.27 5.51.48 8 .42 5 1.07 9.76 1.77 14.93.56 4.2.33 8.35 3.69 9.79 2 .84 5.57.72 8.67.8 4.81.13 9.28-.19 10.76-3.21.78-1.58.93-4.31 1.29-6.74 1-6.61 2-15.57 2.25-22.15v-.32C29-4.26 1.64-3.72.08 11.41zM4.9 5.15C9.08 1.08 18.74.74 23.21 4c1.68 1.23 4.29 4.34 2.25 6.74-1.06-2.44-3.18-4.6-6.75-4C17 5.5 14.43 3.61 11.48 4.67a1.88 1.88 0 0 0 .32 1.77 10.92 10.92 0 0 0-8.35 5.62c-2.62-1.48-.21-5.3 1.45-6.91zm7.55 6.26c2.67.79 1.32-3.67 1.12-5.14 3.43 0 4.06 2.9 5.78 4.65.49 0 .62-.34 1-.48.2-1.05-.48-1.23-.48-2.09a4 4 0 0 1 3.86 3.37c-3.36 1.52-8.13 1.61-10.44 4.17A40.64 40.64 0 0 0 5.06 13a7.64 7.64 0 0 1 7.07-4.65c.33.8-.05 2.3.32 3.06zM5.06 40.94c-.71-1.5-.64-4.3-1-6.74-.87-6.51-1.94-14.91-2.25-21 2.84 2 7.09 2.54 10.28 4.17C7.9 23.59 7.64 37.8 12.45 43c-2.78-.18-6.25.36-7.39-2.06zM25 34.36c-.34 2.42-.47 6.21-1.61 7.38-1.65 1.7-4.91 1-7.55 1.45-5.45-3.06-6.41-13-4-20.39.75-2.3 1.77-5.06 3.21-6.26 3.14-2.62 9.29-1.5 11.89-4.82.58 5.06-1.05 16.17-1.94 22.64zm-9.5-12.52c-2 .82-.76 3.52 1 3.37 2.16-.21 1.95-4.55-1-3.37zm3.21 5.3c-2.22.8 1.64 2.88 1.12.48-.12-.62-.59-.62-1.12-.48z" id="xwrap_icon" data-name="wrap icon"/></g></g></g></g></svg><svg id="wrap-grey" viewBox="-1 -1 31 47" width="31" height="47" x="308" xmlns="http://www.w3.org/2000/svg"><style>.yst0{fill:#a3a3a3}</style><g id="yLayer_2"><g id="yHeader"><g id="yFood_Menu"><g id="yWraps"><path class="yst0" d="M.1 11.4c-.3 2.7.3 5.5.5 8 .4 5 1.1 9.8 1.8 14.9.6 4.2.3 8.4 3.7 9.8 2 .8 5.6.7 8.7.8 4.8.1 9.3-.2 10.8-3.2.8-1.6.9-4.3 1.3-6.7 1-6.6 2-15.6 2.2-22.1v-.3C29-4.3 1.6-3.7.1 11.4zm4.8-6.3C9.1 1.1 18.7.7 23.2 4c1.7 1.2 4.3 4.3 2.2 6.7-1.1-2.4-3.2-4.6-6.8-4-1.7-1.2-4.3-3.1-7.2-2.1-.2.6-.1 1.3.3 1.8-3.5.4-6.6 2.5-8.4 5.6-2.5-1.4-.1-5.2 1.6-6.9zm7.6 6.3c2.7.8 1.3-3.7 1.1-5.1 3.4 0 4.1 2.9 5.8 4.7.5 0 .6-.3 1-.5.2-1.1-.5-1.2-.5-2.1 1.9 0 3.6 1.5 3.9 3.4-3.4 1.5-8.1 1.6-10.4 4.2-2.6-1.3-5.4-2.2-8.2-2.9 1.2-2.8 4-4.7 7.1-4.6.2.6-.2 2.1.2 2.9zM5.1 40.9c-.7-1.5-.6-4.3-1-6.7-.9-6.5-1.9-14.9-2.2-21 2.8 2 7.1 2.5 10.3 4.2-4.3 6.2-4.6 20.4.2 25.6-2.7-.2-6.2.4-7.3-2.1zM25 34.4c-.3 2.4-.5 6.2-1.6 7.4-1.6 1.7-4.9 1-7.6 1.5-5.4-3.1-6.4-13-4-20.4.8-2.3 1.8-5.1 3.2-6.3 3.1-2.6 9.3-1.5 11.9-4.8.6 5-1 16.1-1.9 22.6zm-9.5-12.6c-2 .8-.8 3.5 1 3.4 2.2-.2 2-4.5-1-3.4zm3.2 5.3c-2.2.8 1.6 2.9 1.1.5-.1-.6-.6-.6-1.1-.5z" id="ywrap_icon"/></g></g></g></g></svg></svg>