<svg xmlns="http://www.w3.org/2000/svg" width="91" height="83" viewBox="0 0 91 83">
  <metadata><?xpacket begin="﻿" id="W5M0MpCehiHzreSzNTczkc9d"?>
<x:xmpmeta xmlns:x="adobe:ns:meta/" x:xmptk="Adobe XMP Core 5.6-c138 79.159824, 2016/09/14-01:09:01        ">
   <rdf:RDF xmlns:rdf="http://www.w3.org/1999/02/22-rdf-syntax-ns#">
      <rdf:Description rdf:about=""/>
   </rdf:RDF>
</x:xmpmeta>
                                                                                                    
                                                                                                    
                                                                                                    
                                                                                                    
                                                                                                    
                                                                                                    
                                                                                                    
                                                                                                    
                                                                                                    
                                                                                                    
                                                                                                    
                                                                                                    
                                                                                                    
                                                                                                    
                                                                                                    
                                                                                                    
                                                                                                    
                                                                                                    
                                                                                                    
                                                                                                    
                           
<?xpacket end="w"?></metadata>
<defs>
    <style>
      .cls-1 {
        fill: #b9b9b9;
        fill-rule: evenodd;
      }
    </style>
  </defs>
  <path id="bag_icon" data-name="bag icon" class="cls-1" d="M541.983,4122.07c-1.913-.02-3.86-1.42-5.562-2.44s-3.6-2.05-4.673-3.55a1.686,1.686,0,0,1,.222-0.66c1.664-.7,4.035,1.7,6.008,2.88C539.741,4119.35,542.758,4120,541.983,4122.07Zm-2.225,3.78c-1.827,1.43-3.926-1-5.562-2-1.82-1.11-4.523-1.83-5.118-3.77a1.144,1.144,0,0,0,.668-0.67C533.482,4121.16,537.33,4122.79,539.758,4125.85Zm-2.67,4.44c-1.448.96-3.459-.74-5.562-2-1.641-.99-5.985-2.8-4.45-4.66h0.445a32.532,32.532,0,0,1,5.117,3.1C534.17,4127.68,536.685,4128.11,537.088,4130.29Zm-42.942,18.42v1.77a161.266,161.266,0,0,1-18.913,0c0.1-.72-0.293-1.92.445-2C481.762,4148.63,488.432,4148.19,494.146,4148.71Zm-2.67,9.98a3.691,3.691,0,0,1,3.782,4.89c-1.4,4.4-10.484,1.34-6.452-3.78A3.568,3.568,0,0,1,491.476,4158.69Zm-1.113,4.66a1.746,1.746,0,0,0,2.67-2.22A1.746,1.746,0,0,0,490.363,4163.35Zm18.468-4.66c4.752-.4,5.122,7.55,0,7.33C504.074,4165.81,504.436,4159.07,508.831,4158.69Zm-1.113,4.66a1.746,1.746,0,0,0,2.67-2.22A1.746,1.746,0,0,0,507.718,4163.35Zm17.8-4.43c3.375-1.02,5,1.02,4.895,3.55-0.182,4.27-7.6,5.03-7.342-.45A3.223,3.223,0,0,1,525.518,4158.92Zm-0.445,3.99a0.609,0.609,0,0,1,.445.67C531.829,4164.84,525.52,4156.91,525.073,4162.91Zm-24.7,2.44c4.129-.2,5.328,7.15.222,7.33C496.356,4172.82,494.819,4165.62,500.376,4165.35Zm-1.335,4.66a1.746,1.746,0,0,0,2.67-2.22A1.746,1.746,0,0,0,499.041,4170.01Zm17.8-4.44a4.263,4.263,0,0,1,2.447-.22c2.2,0.55,4.017,6.08,0,7.1C515.125,4173.51,512.085,4167.01,516.841,4165.57Zm-0.445,4a0.6,0.6,0,0,1,.445.66,3.439,3.439,0,0,0,2.447,0,2.347,2.347,0,0,0,0-2.66C517.748,4166.93,515.987,4167.57,516.4,4169.57Zm-21.36,8.43a11.933,11.933,0,0,1,5.117,0h-5.117Zm42.275,0H500.153a11.933,11.933,0,0,0-5.117,0H479.461c-3.461-.94-3.021-7.14-3.783-12.2-0.583-3.89-1.166-7.5-1.78-9.99-6.381,1.83-6.2-3.75-7.12-9.1-0.771-4.46-1.015-8.37-1.78-10.65v-1.34c0.223-1.55,2.368-1.18,3.783-1.55,0.011-10.19,6.745-17.34,15.8-17.98,10.567-.74,18.046,6.96,18.913,17.98,0.786-4.23.445-12.55,0.445-18.86,0-2.1-.962-6.65,1.78-5.77,1.034,7.32.151,16.56,0.445,24.63h5.117v-19.09c0-1.99-.941-6.43,1.78-5.54,1.321,7.06-.43,17.33.89,24.63,1.749,0.03,2.018-2,2.67-3.11,4.611-7.84,9.8-16.58,14.908-24.41,0.969-.27,1.978,1.44,2.224.44,1.474-3.41,1.7-8.07,3.561-11.09h1.335v0.22c2.22,0.95,5.662.34,6.23,2.44,0.561,2.08-2.13,4.57-1.558,6.88,1.191-1.1,2.271-2.02,3.783-3.33,1-.86,2.605-2.97,4-2.88,0.97,0.06,4.972,4.24,4.895,5.77-0.122,2.39-3.072,2.11-3.783,4.21,0.639,1.22,2.021,1.69,2.225,3.33-0.981,1.76-2.753,2.73-4.227,4,0,0.97.761,1.31,0.222,2.22-2.95,5.12-6.1,10.04-8.9,15.31,3.135,0.35,7.877-.9,9.345,1.11,0.294,2.97-.615,6.55-1.335,11.1-0.778,4.92-.434,12.34-6.9,10.65-0.507,4.41-1.464,10.02-2.225,15.09C539.921,4174.48,540.262,4177.4,537.311,4178Zm-1.558-70.35c3.994,2.45,8.03,4.86,12.238,7.1a13.36,13.36,0,0,0,4-3.55c-3.62-2.17-.91-5.83,1.78-7.1a8.8,8.8,0,0,0-3.115-3.33c-2.269.83-5.03,6.21-7.788,5.99-3.5-.28-0.632-5.88-0.222-8.43a40.271,40.271,0,0,0-4.228-1.11A89.761,89.761,0,0,0,535.753,4107.65Zm-3.783.44c-4.544,8.56-10.494,16.91-14.462,25.3,7.8-.51,14.518.06,21.36-0.22q4.914-7.635,9.345-15.76C542.841,4114.26,537.675,4110.91,531.97,4108.09Zm-45.167,9.1c-9.263-.48-15.959,6.22-16.02,15.98,3.572,0.41,7.5.05,11.57,0a4.129,4.129,0,0,1,5.34-3.77c1.789,0.45,2.2,2.55,3.115,3.77,3.591-.23,6.962.62,10.235,0C500.872,4124.02,495.411,4117.64,486.8,4117.19Zm-2.447,15.98a13.779,13.779,0,0,0,4,0C488.6,4130.83,484.1,4130.74,484.356,4133.17ZM467,4135.61c1.172,5.94,1.988,12.22,3.115,18.2,23.516,0.27,51.545-.07,75.872,0,1.21-5.97,2.065-12.29,3.115-18.42-12.409-.28-23.326.06-35.6,0-0.623,2.19,1.556,7.18-1.78,6.66-0.99-1.38-.183-4.55-0.445-6.66h-5.117c-0.623,2.19,1.556,7.18-1.78,6.66-0.991-1.38-.183-4.55-0.445-6.66C490.84,4135.51,477.979,4134.82,467,4135.61Zm9.122,20.42c1.141,6.48,1.824,13.42,3.115,19.75,17.667,0.17,39.2-.04,58.3,0,1.387-6.23,2.071-13.17,3.115-19.75C519.8,4156.11,496.116,4155.78,476.123,4156.03Z" transform="translate(-465 -4095)"/>
</svg>
