<?xml version="1.0" encoding="utf-8"?>
<!-- Generator: Adobe Illustrator 21.1.0, SVG Export Plug-In . SVG Version: 6.00 Build 0)  -->
<svg version="1.1" id="Layer_1" xmlns="http://www.w3.org/2000/svg" xmlns:xlink="http://www.w3.org/1999/xlink" x="0px" y="0px"
	 viewBox="0 0 46 35" style="enable-background:new 0 0 46 35;" xml:space="preserve">
<style type="text/css">
	.st0{fill:#A3A3A3;}
</style>
<title>svgAsset 4</title>
<g id="Layer_2">
	<g id="Header">
		<g id="Food_Menu">
			<g id="Burgers">
				<g id="burger_icon">
					<path class="st0" d="M45.9,21.3c-0.2-1-1.5-1.5-1.8-2.8s0.2-1.8,0-3.1c3.8-0.9,0.6-3.2,0-4.7s-0.5-2.7-1-3.9
						c-1.5-3.6-4.8-6.1-8.7-6.5c-3.7-0.4-7.7,0-11.5,0c-4,0-7.5-0.4-11.5,0C5.6,0.8,2.2,5.6,1.9,10.8c-0.4,1.1-2,1.9-1.8,3.1
						c0.2,1,1.4,0.6,1.8,1.6v3.1c-1.3,1.5-2.1,2.3-1.8,4.3c0.2,1.4,1.6,1.8,1.8,2.8c0.5,1.8-0.3,3.9,0,5.6c0.8,4.5,6.9,3.6,12.2,3.6
						h17.8c3,0,6.2,0.4,8.9,0c3.8-0.5,3.6-5.2,3.5-9.3C45.2,24.2,46.3,23.3,45.9,21.3z M11.6,2c3.1-0.4,7.4,0,11.5,0s8.3-0.4,11.5,0
						c4.8,0.6,7,4.5,7.7,8.2H3.7C4.5,6.2,6.7,2.6,11.6,2z M3.4,12h36.8c1.4,0,3.2-0.3,3.6,1.5c-1.8,1.1-4.6,0.2-5.9-0.6
						c-2.3,2-6.9,2-9.2,0c-3.3,2.3-7.7,2.3-11,0c-2.5,1.9-6.8,2.2-9.2,0c-1.4,0.8-4.2,1.8-6.1,0.6C2.5,12.9,2.9,12.4,3.4,12z
						 M42.3,15.8v2.7H3.7v-2.8c1.5,0.1,3.1-0.2,4.4-1c2.1,1.8,7.3,2,9.4,0c2.8,2.1,8.3,2.3,11,0c2.2,1.8,7.2,2,9.4,0
						C39.2,15.4,40.8,15.8,42.3,15.8L42.3,15.8z M41.5,32.4c-1.2,1.1-6.2,0.7-8.9,0.7h-19c-2.9,0-7.6,0.5-8.9-0.5s-0.9-4.3-1-6.4
						c0-0.2,0-0.5,0.2-0.5h38.5C42.2,27.5,42.8,31.2,41.5,32.4L41.5,32.4z M34.1,23.9H12.4c-2.2,0-9.2,0.6-10.2-0.6
						c-0.6-0.8-0.5-1.9,0.3-2.6c0.1-0.1,0.2-0.2,0.3-0.2c1.8-0.8,8.2-0.2,10.7-0.2h21c3.8,0,10.8-1.2,9.5,2.6
						C43.6,24.6,36.8,23.9,34.1,23.9L34.1,23.9z M15,5.3c0.6,0.6,1.5,0.5,2.1-0.1s0.5-1.5-0.1-2.1c-0.7-0.5-1.6-0.3-2.1,0.3
						C14.6,4,14.6,4.7,15,5.3z M12.7,4.4C12.4,4,11.8,3.8,11.2,4C10,4.3,10,4.8,10.1,5.3C10.2,7.3,14,6.7,12.7,4.4L12.7,4.4z
						 M12.9,8.2C13,9,14,9.5,15.2,9C17.1,6.6,12.4,5.6,12.9,8.2L12.9,8.2z"/>
				</g>
			</g>
		</g>
	</g>
</g>
</svg>
