<svg xmlns="http://www.w3.org/2000/svg" width="80" height="76" viewBox="0 0 80 76">
  <metadata><?xpacket begin="﻿" id="W5M0MpCehiHzreSzNTczkc9d"?>
<x:xmpmeta xmlns:x="adobe:ns:meta/" x:xmptk="Adobe XMP Core 5.6-c138 79.159824, 2016/09/14-01:09:01        ">
   <rdf:RDF xmlns:rdf="http://www.w3.org/1999/02/22-rdf-syntax-ns#">
      <rdf:Description rdf:about=""/>
   </rdf:RDF>
</x:xmpmeta>
                                                                                                    
                                                                                                    
                                                                                                    
                                                                                                    
                                                                                                    
                                                                                                    
                                                                                                    
                                                                                                    
                                                                                                    
                                                                                                    
                                                                                                    
                                                                                                    
                                                                                                    
                                                                                                    
                                                                                                    
                                                                                                    
                                                                                                    
                                                                                                    
                                                                                                    
                                                                                                    
                           
<?xpacket end="w"?></metadata>
<defs>
    <style>
      .cls-1 {
        fill: #b9b9b9;
        fill-rule: evenodd;
      }
    </style>
  </defs>
  <path id="chef_icon" data-name="chef icon" class="cls-1" d="M1108.04,4096h4.13c5.82,1.14,10.05,3.85,12.61,8.23,9.61-6.1,24.96-1.2,25.22,10.61v1.95c0.15,11.57-11.61,11.29-18.04,16.24-4.2,3.21-3.88,10.15-4.13,18.18-7.7,4.93-27.74,4.9-35.44,0-0.81-6.81.9-14.1-3.04-17.53-2.11-1.84-5.9-2.33-8.7-3.69-4.88-2.35-9.25-5.43-10.65-11.47v-3.68c1.57-8.54,8.33-14.24,17.82-13.21,3.11,0.33,4.9,1.74,7.4,2.81A18.369,18.369,0,0,1,1108.04,4096Zm0.22,1.95a15.631,15.631,0,0,0-12.61,21c0.24,0.66,3.23,4.45,1.74,5.2-1.16.58-2.5-2.44-3.04-3.68-1.71-3.91-2.14-10.5,0-14.08-8.91-6.91-21.48-.51-22.4,8.88-0.8,8.27,6.14,11.42,11.31,13.64,2.11,0.91,4.87,1.53,6.74,2.82,4.44,3.04,4.21,11.42,4.13,18.62,8.29,3.43,23.66,3.4,31.96,0-0.06-6.14-.19-13.22,2.61-16.89,5.57-7.33,20.06-4.73,19.34-18.41-0.56-10.74-14.67-14.98-23.91-8.23C1121.01,4101.37,1116.13,4097.07,1108.26,4097.95Zm22.39,29.45c-4.63,1.37-7.73,4.27-7.61,10.39-0.68-.04-1.59.15-1.95-0.22,0.07-6.93,3.52-10.49,9.13-11.91C1130.08,4126.52,1130.79,4126.53,1130.65,4127.4Zm-28.04,19.48c-0.05.68,0.14,1.59-.22,1.95-1.99-.18-3.66-0.69-5.65-0.86C1096.44,4144.29,1100.32,4147.36,1102.61,4146.88Zm21.09-.86c0.03,0.61.39,0.9,0.43,1.51a16.028,16.028,0,0,1-5.22,1.09c0.05-.7-0.38-0.92-0.21-1.74A43.338,43.338,0,0,1,1123.7,4146.02Zm-16.53,1.3h7.18v1.95h-7.18v-1.95Zm11.96,24.68h-3.91a12.215,12.215,0,0,1-5.44-2.38c-6.18,4.99-17.76.32-20.65-3.9,7.07,2.76,11.41-3.31,16.96-3.25,1.26,0.02,2.68,1.1,4.13,1.09a20.82,20.82,0,0,0,2.39-.65c6.8-1.09,10.8,5.75,18.69,2.81C1128.32,4168.88,1124.13,4170.85,1119.13,4172Zm-9.13-6.28c-4.92-3.3-9.58,1.41-14.13,2.38,3.17,1.51,7.11,2.88,10.87,1.3,1.01-.42,2.1-2,3.26-1.95,0.95,0.05,1.97,1.56,2.83,1.95,3.77,1.73,8.33.43,11.52-1.3C1119.4,4167.3,1115.17,4162.47,1110,4165.72Z" transform="translate(-1070 -4096)"/>
</svg>
