<svg xmlns="http://www.w3.org/2000/svg" width="103" height="74" viewBox="0 0 103 74">
  <metadata><?xpacket begin="﻿" id="W5M0MpCehiHzreSzNTczkc9d"?>
<x:xmpmeta xmlns:x="adobe:ns:meta/" x:xmptk="Adobe XMP Core 5.6-c138 79.159824, 2016/09/14-01:09:01        ">
   <rdf:RDF xmlns:rdf="http://www.w3.org/1999/02/22-rdf-syntax-ns#">
      <rdf:Description rdf:about=""/>
   </rdf:RDF>
</x:xmpmeta>
                                                                                                    
                                                                                                    
                                                                                                    
                                                                                                    
                                                                                                    
                                                                                                    
                                                                                                    
                                                                                                    
                                                                                                    
                                                                                                    
                                                                                                    
                                                                                                    
                                                                                                    
                                                                                                    
                                                                                                    
                                                                                                    
                                                                                                    
                                                                                                    
                                                                                                    
                                                                                                    
                           
<?xpacket end="w"?></metadata>
<defs>
    <style>
      .cls-1 {
        fill: #b9b9b9;
        fill-rule: evenodd;
      }
    </style>
  </defs>
  <path id="clock_icon" data-name="clock icon" class="cls-1" d="M819.554,4098H833.92c1.476,1.03,1.4,6.38.244,7.74-4.422.27-11.071,0.68-15.1-.25C818.75,4103.4,818.38,4099.39,819.554,4098Zm1.46,2.17v3.63H832.7v-3.63H821.014Zm21.185,5.81c2.6,0.88,4.5,2.46,6.818,3.63-0.053.91-.765,1.17-0.974,1.93-2.292-1.03-3.96-2.68-6.574-3.39C841.338,4107.06,841.958,4106.71,842.2,4105.98Zm-30.681,2.42c-2.369.79-4,2.31-6.088,3.38-0.712-.1-0.79-0.83-1.217-1.21,1.567-1.99,4-3.12,6.574-4.11C811,4107.14,811.574,4107.45,811.518,4108.4ZM859,4137.66v5.32c-2.379,16.1-11.709,25.29-26.542,29.02H821.014c-1.489-.39-3.5-1.03-5.357-1.69-1.8-.64-3.67-1.85-5.113-1.93-1.068-.07-1.945.55-2.922,0.72-16.859,2.96-31.079-9.2-32.143-23.94-1.139-15.8,8.382-25.23,19.481-28.3a5.351,5.351,0,0,0,.486,1.45c-9.807,4.04-18.266,11.73-18.019,24.43,0.314,16.1,13.279,26.35,30.438,23.94-1.456-1.19-2.159-2.69-3.9-3.14-2-.52-4.279.11-6.087-0.24a20.629,20.629,0,0,1-16.315-16.21,21.476,21.476,0,0,1,5.6-19.1c2.445-2.43,5.581-4.58,9.5-4.84,0.678,2.31-2.335,2.04,0,3.87,1.352-.46,1.591-2.12,2.191-3.15a32.35,32.35,0,0,1,29.952-15.72C846.321,4109.42,856.324,4121.31,859,4137.66Zm-42.126-25.88a30.239,30.239,0,0,0-19.968,22.98c-3.888,22.52,15.772,37.37,33.6,35.31a29.945,29.945,0,0,0-6.818-59.5A34.263,34.263,0,0,0,816.875,4111.78Zm-23.864,14.51c-0.883.98-2.535,1.19-2.922,2.66,1.8,1.2,3.057,2.93,5.114,3.87a27.131,27.131,0,0,1,.974-3.14C795.156,4128.52,794.438,4127.05,793.011,4126.29Zm-5.113,4.11a33.17,33.17,0,0,0-2.922,4.84,82.418,82.418,0,0,0,9.5,2.66c-0.192-.99.373-1.24,0.243-2.17C792.5,4133.89,790.712,4131.64,787.9,4130.4Zm-4.383,11.37c3.75,0.08,8.352.84,10.958-.48-0.338-1.74-2.8-1.99-4.384-2.42-1.815-.5-3.869-0.86-5.6-1.21-0.014-.15-0.037-0.29-0.244-0.24A11.486,11.486,0,0,0,783.515,4141.77Zm0.243,2.42c-0.53,1.34.22,3.49,0.731,4.6,1.744-.42,3.962-0.89,5.844-1.46,1.63-.48,4.468-0.73,4.383-2.9C791.632,4143.69,787.593,4143.99,783.758,4144.19Zm1.7,6.77c0.514,1.83,1.807,2.88,2.678,4.36,2.736-1.88,5.545-3.69,7.549-6.29-0.361-.05-0.223-0.59-0.244-0.97A103.694,103.694,0,0,0,785.463,4150.96Zm11.2,0.97c-1.607.64-6.594,4.76-6.575,5.08,0.06,0.99,3.946,2.48,4.627,2.66C795.253,4156.85,798.26,4154.72,796.664,4151.93Zm0,8.71c1.476,0.39,3.856,1.16,5.6.48-1.727-1.11-2.155-3.5-3.9-4.6C797.975,4158.07,797.044,4159.08,796.664,4160.64Zm31.412-47.65c-0.14,1.88.294,4.32-.243,5.81h-1.949C825.6,4116.93,824.593,4111.11,828.076,4112.99Zm-7.792,4.11c1.059-.16.39,1.39,0.974,1.7-7.448,2.6-12.78,7.3-15.584,14.51a3.744,3.744,0,0,1-1.948-.49A24.142,24.142,0,0,1,820.284,4117.1Zm30.194,16.21c-0.682.13-1.265,0.35-1.948,0.48-2.634-6.65-6.9-11.69-13.879-14.03a3.8,3.8,0,0,1,.73-2.17C842.8,4120.46,848.02,4125.51,850.478,4133.31Zm-9.253-3.63c-2.94,3.29-7.3,5.17-10.227,8.46,0.55,1.63,2.438.74,3.653,0.73a71.873,71.873,0,0,1,10.227.48v1.45a77.2,77.2,0,0,1-12.906.25c-1.293,3.64-5.974,5.87-9.01,2.66-3.772-4,1.485-10.79,6.331-7.5,3.721-2.51,7.117-5.35,10.715-7.98C840.657,4128.47,840.811,4129.2,841.225,4129.68Zm-13.88,13.3c2.891-.54,2.794-6.65-1.7-5.08C822.223,4139.1,824.53,4143.51,827.345,4142.98ZM756,4132.34h8.279c2.908,0,8.8-1.07,7.792,1.93-4.4,1.12-10.867.17-16.071,0.49v-2.42Zm0,9.43h7.061c2.879,0,7.526-.96,6.575,1.94-3.588,1.11-9.241.17-13.636,0.48v-2.42Zm48.7,4.11c1.872,3.49,3.038,6.95,5.6,9.68a31.409,31.409,0,0,0,9.01,6.28c0.16,0.89-.527.93-0.487,1.7a22.77,22.77,0,0,1-15.584-17.42C803.983,4146.3,803.955,4145.71,804.7,4145.88Zm45.778,1.94c-2.459,7.87-7.534,13.15-15.34,15.72a5.386,5.386,0,0,0-.487-1.45c6.244-3.31,11.617-7.49,13.879-14.76C849.407,4147.27,849.7,4147.78,850.478,4147.82ZM756,4151.2c5.276,0.16,11.2-.32,16.071.25v2.17H756v-2.42Zm72.077,9.68c-0.14,1.87.294,4.32-.243,5.8h-1.949C825.6,4164.82,824.593,4159,828.076,4160.88Z" transform="translate(-756 -4098)"/>
</svg>
