<svg xmlns="http://www.w3.org/2000/svg" viewBox="0 0 133.01 5.01"><defs><style>.cls-1{fill:#fff;fill-rule:evenodd;}</style></defs><title>svgAsset 10</title><g id="Layer_2" data-name="Layer 2"><g id="Header"><g id="Order_Cart" data-name="Order Cart"><g id="bill_paper" data-name="bill paper"><path class="cls-1" d="M0,0V1.5H0V2H.5l3,3,3-3,3,3,3-3,3,3,3-3,3,3,3-3,3,3,3-3,3,3,3-3,3,3,3-3,3,3,3-3,3,3,3-3,3,3,3-3,3,3,3-3,3,3,3-3,3,3,3-3,3,3,3-3,3,3,3-3,3,3,3-3,3,3,3-3,3,3,3-3,3,3,3-3,3,3,3-3,3,3,3-3,3,3,3-3h.5V0ZM3,2H3ZM9,2H9Zm6,0h0Zm6,0h0Zm6,0h0Zm6,0h0Zm6,0h0Zm6,0h0Zm6,0h0Zm6,0h0Zm6,0h0Zm6,0h0Zm6,0h0Zm6,0h0Zm6,0h0Zm6,0h0Zm6,0h0Zm6,0h0Zm6,0h0Zm6,0h0Zm6,0h0Zm6,0h0Z"/></g></g></g></g></svg>