<?xml version="1.0" encoding="utf-8"?>
<!-- Generator: Adobe Illustrator 21.1.0, SVG Export Plug-In . SVG Version: 6.00 Build 0)  -->
<svg version="1.1" id="Layer_1" xmlns="http://www.w3.org/2000/svg" xmlns:xlink="http://www.w3.org/1999/xlink" x="0px" y="0px"
	 viewBox="0 0 24 44" style="enable-background:new 0 0 24 44;" xml:space="preserve">
<style type="text/css">
	.st0{fill:#A3A3A3;}
</style>
<title>svgAsset 8</title>
<g id="Layer_2">
	<g id="Header">
		<g id="Food_Menu">
			<g id="Drinks">
				<g id="drink_icon">
					<path class="st0" d="M23.7,35.1c-0.1-0.7-1.8-2.4-1.8-2.7c0.4-0.3,0.7-0.7,1-1.1c0.7-0.9,1-2.1,0.8-3.3c-0.2-1-1.8-2.2-1.8-2.6
						c0-0.3,1.4-1.4,1.6-2c0.7-2.2-0.3-3.7-1.6-5c4.6-3.4-0.6-10.6-4.5-11.5c-0.2-2.8,0.9-6-2.1-6.7c-2.3-0.4-4.7-0.4-7,0.2
						C6,1.2,6.6,4,6.6,7.1C2.1,7.9-2.1,14.9,2,18.7c-1.2,1.1-2.2,2.2-1.8,4.3c0.2,1.2,1.8,2.2,1.8,2.6s-1.6,1.6-1.8,2.5
						C-0.2,30.6,1,31.3,2,32.7c-1.8,1.2-2.4,4.5-1.7,7.8c0.8,4.2,6.2,3.4,11.5,3.4c2.6,0.1,5.3,0.1,7.9,0
						C23.5,43.4,24.6,39.4,23.7,35.1z M8.5,2.3c2.3-0.5,4.7-0.5,7,0c0.3,1.1,0.1,2.7,0.2,4H8.4C8.4,5,8.2,3.4,8.5,2.3z M22,40.3
						c-1,2.6-5.2,1.9-10,1.9c-4.4,0-9.2,0.8-9.9-2c-0.2-0.9-0.3-4.6,0.3-5.6c0.5-0.8,3.3-0.9,3.2-2s-0.4-0.1-2.3-1.1
						c-1.3-0.8-1.7-2.6-0.9-3.9c0.1-0.2,0.2-0.3,0.4-0.5c1.1-1,2.8-0.2,2.8-1.6c-0.1-0.8-2.2-1-2.8-1.4c-1.1-1.1-1.1-2.9,0-4
						c0,0,0,0,0,0c0.6-0.5,2.7-0.5,2.8-1.4C5.7,17.6,4,18,3.2,17.5c-2.2-1.3-0.7-5.2,0.6-6.7c3.4-3.6,12.7-3.5,16-0.3
						c1.2,1.1,3.3,5,1.5,6.7c-0.5,0.5-3.2,0.5-2.9,1.7c0.2,0.8,1.6,0.6,2.3,0.9c1.2,0.6,2,3,0.5,4.4c-0.6,0.5-2.6,0.5-2.8,1.2
						c-0.3,1.4,1.3,0.6,2.6,1.6c1.2,1.1,1.3,2.9,0.2,4.1c-0.2,0.2-0.3,0.3-0.5,0.5c-0.8,0.4-2.1,0.2-2.3,0.9c-0.2,1.2,1.9,1,2.8,1.7
						C22.6,35.4,21.6,38.1,22,40.3L22,40.3z"/>
				</g>
			</g>
		</g>
	</g>
</g>
</svg>
