<svg xmlns="http://www.w3.org/2000/svg" viewBox="0 0 23.99 44"><defs><style>.cls-1{fill:#ffffff;fill-rule:evenodd;}</style></defs><title>svgAsset 8</title><g id="Layer_2" data-name="Layer 2"><g id="Header"><g id="Food_Menu" data-name="Food Menu"><g id="Drinks"><g id="drink_icon" data-name="drink icon"><path class="cls-1" d="M23.73,35.15c-.13-.66-1.79-2.38-1.78-2.65a9.7,9.7,0,0,0,1-1.09,4.14,4.14,0,0,0,.81-3.27c-.18-1-1.79-2.19-1.78-2.65,0-.26,1.41-1.38,1.62-2,.71-2.23-.3-3.68-1.62-5,4.6-3.37-.6-10.63-4.53-11.52-.21-2.82.89-6-2.1-6.69a16.9,16.9,0,0,0-7,.16C6,1.24,6.64,4,6.57,7.14c-4.43.8-8.7,7.75-4.53,11.52C.81,19.79-.15,20.86.26,23c.22,1.17,1.8,2.24,1.78,2.65S.43,27.2.26,28.15C-.21,30.62,1,31.27,2,32.66.16,33.87-.38,37.21.26,40.44c.84,4.24,6.19,3.42,11.49,3.42a70.7,70.7,0,0,0,7.93,0C23.46,43.37,24.57,39.45,23.73,35.15ZM8.51,2.31a16.21,16.21,0,0,1,7,0c.33,1.08.09,2.72.16,4H8.35C8.42,5,8.18,3.39,8.51,2.31Zm13.44,38c-1,2.63-5.17,1.87-10,1.87-4.44,0-9.18.84-9.87-2-.22-.93-.3-4.58.32-5.6.46-.75,3.27-.91,3.24-2s-.45-.11-2.27-1.09a2.81,2.81,0,0,1-.49-4.36c1.14-1,2.85-.19,2.75-1.56-.06-.84-2.23-.95-2.75-1.4a2.8,2.8,0,0,1,0-4c.62-.53,2.7-.53,2.75-1.4.08-1.21-1.62-.78-2.43-1.24-2.23-1.28-.71-5.23.65-6.69,3.36-3.63,12.66-3.54,16-.31,1.17,1.12,3.31,5,1.46,6.69-.52.47-3.16.52-2.91,1.71.17.83,1.6.57,2.27.93,1.17.64,2,3,.49,4.36-.58.49-2.58.46-2.75,1.25-.31,1.43,1.27.63,2.59,1.56a2.87,2.87,0,0,1-.32,4.51c-.75.42-2.12.19-2.27.93-.24,1.18,1.93,1,2.75,1.71C22.64,35.38,21.65,38.06,21.95,40.29Z"/></g></g></g></g></g></svg>