<svg xmlns="http://www.w3.org/2000/svg" width="124" height="79" viewBox="0 0 124 79">
  <metadata><?xpacket begin="﻿" id="W5M0MpCehiHzreSzNTczkc9d"?>
<x:xmpmeta xmlns:x="adobe:ns:meta/" x:xmptk="Adobe XMP Core 5.6-c138 79.159824, 2016/09/14-01:09:01        ">
   <rdf:RDF xmlns:rdf="http://www.w3.org/1999/02/22-rdf-syntax-ns#">
      <rdf:Description rdf:about=""/>
   </rdf:RDF>
</x:xmpmeta>
                                                                                                    
                                                                                                    
                                                                                                    
                                                                                                    
                                                                                                    
                                                                                                    
                                                                                                    
                                                                                                    
                                                                                                    
                                                                                                    
                                                                                                    
                                                                                                    
                                                                                                    
                                                                                                    
                                                                                                    
                                                                                                    
                                                                                                    
                                                                                                    
                                                                                                    
                                                                                                    
                           
<?xpacket end="w"?></metadata>
<defs>
    <style>
      .cls-1 {
        fill: #bdbdbd;
        fill-rule: evenodd;
      }
    </style>
  </defs>
  <path id="food_icon" data-name="food icon" class="cls-1" d="M1398.72,4094h18.96c-0.17.72,0.33,2.11-.27,2.39-2.13.16-3.17-.55-3.74,0.8-0.98,2.32,1.84,2,4.01,2.39,26.9,4.83,41.08,27.7,41.64,57.43,2.11,0.33,4.25-.97,4.01,1.33-0.19,1.76-3.99,1.06-7.21,1.06h-8.28c0.59,2.07,1.44,3.89,1.6,6.38,1.25,0.47,4.58-1.1,4.81,1.06,0.21,1.97-3.45,1.33-4.54,1.33h-83.82c-1.67,0-5.23.57-4.54-1.59,0.52-1.64,2.86-.43,5.07-0.8a12.9,12.9,0,0,1-.27-6.38h-7.47c-3.19,0-6.64.81-6.41-1.33,0.21-1.99,2.07-.71,4.27-1.06,1.02-30.94,14.21-51.22,39.78-56.89,2.3-.51,7.43.23,7.21-3.2-0.5-1.36-3.88.14-4.81-.79V4094Zm6.94,4.79h5.88v-2.4h-5.88v2.4Zm39.51,19.93a44.743,44.743,0,0,0-33.1-17.54c-19.41-1.2-33.58,6.75-41.65,17.28-7.47,9.75-11.23,22.32-11.47,38.55h98.24C1457.03,4141.27,1452.76,4128.48,1445.17,4118.72Zm-76.88,41.48c-0.76,1.9.15,3.98,0.53,5.58,18.07-.18,36.84.35,54.46-0.27a10.558,10.558,0,0,0-.53-6.11h-53.93A0.73,0.73,0,0,0,1368.29,4160.2Zm57.13,5.58h21.62a11.158,11.158,0,0,0-2.13-6.38h-19.76A12.9,12.9,0,0,1,1425.42,4165.78Zm-19.49-54.76a0.4,0.4,0,0,1,.53.26c3.94,3.03,6.6,6.55,7.21,11.7,1.15,9.65-6.18,17.05-2.93,26.85a34.242,34.242,0,0,1-6.95-12.5C1401.33,4128.63,1411.95,4119.66,1405.93,4111.02Zm1.87,29.24c1.29-6.07,6-13.85,2.13-20.21C1408.75,4126.54,1403.03,4134.12,1407.8,4140.26Zm-26.43-18.35c-5.48,4.38-9.17,10.54-11.75,17.82-0.85-.04-1.17-0.61-2.13-0.54,2.16-8.21,6.82-13.94,12.01-19.14A2.677,2.677,0,0,1,1381.37,4121.91Zm28.56-1.86c3.87,6.36-.84,14.14-2.13,20.21m-16.55-18.88c3,1.22,5.22,5.54,5.6,8.51,0.88,6.74-4.19,12.55-2.13,19.94-2.22-2.89-4.96-6.08-5.34-10.1C1388.8,4133.68,1395.3,4127.25,1391.25,4121.38Zm1.33,19.41c0.63-3.12,2.93-7.03,1.6-10.37C1393.57,4133.45,1390.41,4137.58,1392.58,4140.79Zm29.63-19.41c2.91,1.36,5.24,5.89,5.61,9.04,0.76,6.51-4.51,12.08-2.4,19.14-2.34-2.95-4.56-5.62-5.07-9.3C1419.41,4133.54,1426.05,4127.78,1422.21,4121.38Zm1.07,19.41c0.92-2.99,2.88-6.35,1.87-10.37C1424.16,4133.38,1421.56,4137.61,1423.28,4140.79Zm46.72,29.77v2.4H1349.07c-1.44-.08-3.63.6-2.94-1.6,0.27-1.48,2.15-.76,2.94-0.8,1.28-.05,2.75,0,4,0H1470Z" transform="translate(-1346 -4094)"/>
</svg>
