<svg xmlns="http://www.w3.org/2000/svg" viewBox="0 0 39 44"><defs><style>.cls-1{fill:#ffffff;fill-rule:evenodd;}</style></defs><title>svgAsset 6</title><g id="Layer_2" data-name="Layer 2"><g id="Header"><g id="Food_Menu" data-name="Food Menu"><g id="Fries"><g id="fries_icon" data-name="fries icon"><path class="cls-1" d="M35.51,15.77c.35-2.91,1.08-5.43,1.43-8.35-1.37-1.32-4.54-.84-6.82-1.26-.15-1.32.32-3.35.32-5C28.54.16,25,0,22.67,0c-.74.37-.32,1.89-.63,2.68H16.64A14.9,14.9,0,0,0,16.33.17,34.4,34.4,0,0,0,8.56.33C7.89.91,8.46,2.09,8.4,3,6.27,3.46,4,3.74,1.9,4.27,1.8,8.05,3,11.9,3.33,15.77c-1.24.08-3-.33-3.33.63v.31C2.69,25.64,5,34.9,7.77,43.8c7.45.26,16,.26,23.46,0,2.89-8.94,5.56-18.1,7.77-27.72C38.29,15.52,36.68,15.86,35.51,15.77ZM29.8,7.89c1.9,0,3.41.39,5.23.47-.37,2.52-1,4.77-1.27,7.4-1.13.09-2.62-.19-3.49.16-.63.64-.74,1.79-1.27,2.52C28.9,15.19,29.68,11.45,29.8,7.89ZM24.09,1.75c1.51.13,2.93.34,4.44.47C28.21,8.67,27.29,14.53,26.95,21a11.34,11.34,0,0,1-4.6,2.52C22.55,16.49,23.2,8.58,24.09,1.75ZM21.88,4.43c-.43,6.5-.89,13-1.58,19.21H19.18c-.95-2.79-.93-6.1-1.27-9.29S17.12,8,17,4.9a.74.74,0,0,1-.16-.47ZM14.74,1.75c.92,7,1.44,14.43,2.38,21.42-2.21.3-3.75-1.42-5.23-2.36Q11.11,11.26,10,2.06A22,22,0,0,1,14.74,1.75Zm-6.18,3C9.1,8.93,9.34,13.41,10,17.5c-.54.27-.5-1.39-1.11-1.57-1-.35-2.57-.07-3.8-.16C4.69,12.32,4,9.16,3.65,5.69,5.17,5.26,7,5.1,8.56,4.74ZM30.12,42.22H9C6.76,34,4.49,25.74,2.06,17.66c1.59-.37,3.86-.05,5.71-.16,2,4.91,6.52,8.54,13.47,7.87,5.16-.5,8.42-3.88,10.15-7.87h5.71C34.74,25.71,32.37,33.91,30.12,42.22Z"/></g></g></g></g></g></svg>