<?xml version="1.0" encoding="utf-8"?>
<!-- Generator: Adobe Illustrator 21.1.0, SVG Export Plug-In . SVG Version: 6.00 Build 0)  -->
<svg version="1.1" id="Layer_1" xmlns="http://www.w3.org/2000/svg" xmlns:xlink="http://www.w3.org/1999/xlink" x="0px" y="0px"
	 viewBox="0 0 39 44" style="enable-background:new 0 0 39 44;" xml:space="preserve">
<style type="text/css">
	.st0{fill:#A3A3A3;}
</style>
<title>svgAsset 6</title>
<g id="Layer_2">
	<g id="Header">
		<g id="Food_Menu">
			<g id="Fries">
				<g id="fries_icon">
					<path class="st0" d="M35.5,15.8c0.3-2.9,1.1-5.4,1.4-8.4c-1.4-1.3-4.5-0.8-6.8-1.3c-0.1-1.3,0.3-3.3,0.3-5
						C28.5,0.2,25,0,22.7,0c-0.7,0.4-0.3,1.9-0.6,2.7h-5.4c0-0.8-0.1-1.7-0.3-2.5C13.7-0.1,11.1,0,8.6,0.3C7.9,0.9,8.5,2.1,8.4,3
						C6.3,3.5,4,3.7,1.9,4.3C1.8,8,3,11.9,3.3,15.8c-1.2,0.1-3-0.3-3.3,0.6v0.3c2.7,8.9,5,18.2,7.8,27.1c7.4,0.3,16,0.3,23.5,0
						c2.9-8.9,5.6-18.1,7.8-27.7C38.3,15.5,36.7,15.9,35.5,15.8z M29.8,7.9c1.9,0,3.4,0.4,5.2,0.5c-0.4,2.5-1,4.8-1.3,7.4
						c-1.1,0.1-2.6-0.2-3.5,0.2c-0.6,0.6-0.7,1.8-1.3,2.5C28.9,15.2,29.7,11.4,29.8,7.9z M24.1,1.7c1.5,0.1,2.9,0.3,4.4,0.5
						C28.2,8.7,27.3,14.5,27,21c-1.3,1.2-2.9,2.1-4.6,2.5C22.5,16.5,23.2,8.6,24.1,1.7z M21.9,4.4c-0.4,6.5-0.9,13-1.6,19.2h-1.1
						c-1-2.8-0.9-6.1-1.3-9.3S17.1,8,17,4.9c-0.1-0.1-0.2-0.3-0.2-0.5L21.9,4.4z M14.7,1.7c0.9,7,1.4,14.4,2.4,21.4
						c-2.2,0.3-3.8-1.4-5.2-2.4C11.4,14.4,10.7,8.2,10,2.1C11.6,1.8,13.2,1.7,14.7,1.7z M8.6,4.7c0.5,4.2,0.8,8.7,1.4,12.8
						c-0.5,0.3-0.5-1.4-1.1-1.6c-1-0.4-2.6-0.1-3.8-0.2C4.7,12.3,4,9.2,3.7,5.7C5.2,5.3,7,5.1,8.6,4.7L8.6,4.7z M30.1,42.2H9
						C6.8,34,4.5,25.7,2.1,17.7c1.6-0.4,3.9,0,5.7-0.2c2,4.9,6.5,8.5,13.5,7.9c5.2-0.5,8.4-3.9,10.1-7.9h5.7
						C34.7,25.7,32.4,33.9,30.1,42.2z"/>
				</g>
			</g>
		</g>
	</g>
</g>
</svg>
