<?xml version="1.0" encoding="utf-8"?>
<!-- Generator: Adobe Illustrator 21.1.0, SVG Export Plug-In . SVG Version: 6.00 Build 0)  -->
<svg version="1.1" id="Layer_1" xmlns="http://www.w3.org/2000/svg" xmlns:xlink="http://www.w3.org/1999/xlink" x="0px" y="0px"
	 viewBox="0 0 201 52.7" style="enable-background:new 0 0 201 52.7;" xml:space="preserve">
<style type="text/css">
	.st0{fill:#C00A27;}
</style>
<title>svgAsset 11</title>
<g id="Layer_2">
	<g id="Header">
		<g id="Pizzaro_logo">
			<path class="st0" d="M21.5,3.7C6.1,5.6,0,17.9,0,25.6c0,3.1,0.9,6.1,2.6,8.7l5.7-4.9c-0.8-1.5-1.2-3.1-1.3-4.8
				c0-5.2,5-13.1,14.5-14.2c8.2-1,10.5,4.2,10.5,8.5c0,8.2-8.2,14.6-14.5,11.8l3.2-8.4c0.8-2.3,2.3-4.2,4.3-5.5l-1.5-4.4
				c-5.3,0.7-9.1,5.2-10.6,9.1L1.2,52.6l8.5-1.1l5.8-15.2c14.3,4.1,24.8-7.5,24.8-18.6C40.2,9.7,34.6,2,21.5,3.7z M51.6,15.6
				c2.6-0.4,4.6-2.7,4.7-5.3c0-2.2-1.7-4.1-4-4.1c-0.2,0-0.5,0-0.7,0.1c-2.6,0.4-4.6,2.6-4.7,5.3c0,2.3,1.8,4.1,4,4.2
				C51.1,15.6,51.4,15.6,51.6,15.6z M198,12.3c-2.2,4-4.8,6.3-7.4,7.1c1.5-3.2,2.3-6.6,2.4-10.1c0-6.2-3.6-9.5-10-8.7
				c-8.9,1.1-14,9.1-15.8,15.9c-4,7.3-6.5,10.9-8,11.1c-0.8,0.1-2-0.6,0.4-6.9l1.5-4c0.4-0.9,0.6-1.8,0.6-2.8c0-4-6.6-6.2-8.7-7.8
				l1.7-4.5L151.3,0c-2.2,1-5,4.2-5,7c0.1,1.2,0.7,2.3,1.6,3c-1.6,3.6-3,6.9-4.2,9.1l0,0c-3.8,7.1-7.5,11.3-9.6,11.5
				c-1,0.1-1.9-0.6,0.5-6.9l6.6-17.2l-10,4.9c0,0-1.1-4.2-6.3-3.5c-6.8,0.9-11.1,8.8-13.2,15.7c-3.5,6.4-6.1,7.8-8,8
				c-2.7,0.3-4.7-1.4-7.1-1.5l15.6-16.3l-2.8-3.4c-5.2,2.6-9.2,0.5-13.6,1c-6.4,0.8-7.6,6.7-12.1,15.1l0,0c-3.6,6.8-6.3,8.2-8.3,8.5
				c-2.7,0.3-4.7-1.4-7.1-1.5L84,17.4l-2.8-3.3c-5.2,2.6-9.2,0.5-13.6,1c-6.4,0.8-7.6,6.7-12.1,15.1l0,0c-3.8,7.1-7.5,11.3-9.6,11.5
				c-0.9,0.1-1.9-0.5,0.6-6.9l6.5-17.2l-8.5,1.1l-6,15.7c-3.9,10.2-0.5,13.6,4.4,13c6.1-0.8,11.5-7.7,15.6-15.4l0,0
				c3.5-6.5,4.6-8,7-8.3c2.2-0.3,4.2,0.5,5.9,0.6L54.8,41.5l2.8,3.3c5.6-5.3,7.1-0.2,13.7-1c6.8-0.8,11-7.1,15.5-15.4l0,0
				c3.5-6.5,4.6-8,7-8.3c2.2-0.3,4.2,0.5,5.9,0.6L83,38l2.8,3.3c5.6-5.3,7.1-0.2,13.7-1c4.4-0.6,7.8-3.4,10.8-7.6
				c0.2,3.5,2.3,6,6,5.5c4.7-0.6,8.4-5.5,8.4-5.5s0.7,4.4,6.2,3.7c6.5-0.8,11.7-7.6,15.8-15.4l0,0c1.6-3,3-6.1,4.3-9.2
				c1.4,1.1,2.6,1.9,2.6,2.9c0,0.7-0.2,1.3-0.5,1.9l-1.7,4.6c-3.8,10,0.6,12.5,4.7,12s7.5-4.1,10.6-8.9c0.9,4.5,4.4,7,10,6.3
				c4.5-0.6,8.5-3.1,11.1-6.7c5.4-0.3,10.3-4.5,13.2-9.8C200.4,13,199.3,12.3,198,12.3z M125.6,26.3c0,0-2.4,4.2-5.4,4.5
				c-1.1,0.1-1.7-0.4-1.7-1.8c0-3.4,3.9-13.9,8.2-14.5c2.3-0.3,2.4,2.7,2.4,2.7L125.6,26.3z M183.8,14.1c-2.5,0.2-4.5,2.3-4.5,4.9
				c0,1.1,0.4,2.1,1.2,2.9c-1.2,1.7-2.5,2.9-3.8,3.1s-2.1-0.9-2.1-2.6c0-4,4.1-15.7,8.3-16.3C184,6,185,6.7,185,8.7
				C184.9,10.6,184.5,12.4,183.8,14.1L183.8,14.1z"/>
		</g>
	</g>
</g>
</svg>
