<svg xmlns="http://www.w3.org/2000/svg" viewBox="0 0 201 52.65"><defs><style>.cls-1{fill:#fff;fill-rule:evenodd;}</style></defs><title>svgAsset 11</title><g id="Layer_2" data-name="Layer 2"><g id="Header"><g id="Pizzaro_logo" data-name="Pizzaro logo"><path class="cls-1" d="M21.53,3.7C6.13,5.64,0,17.88,0,25.59a16.49,16.49,0,0,0,2.61,8.72l5.65-4.94A11,11,0,0,1,7,24.6c0-5.25,5-13.06,14.5-14.25,8.21-1,10.55,4.19,10.55,8.53,0,8.25-8.21,14.59-14.5,11.84l3.25-8.39a10.93,10.93,0,0,1,4.32-5.53l-1.55-4.41c-5.33.67-9.06,5.21-10.55,9.1L1.17,52.65l8.47-1.07L15.4,36.4c14.34,4.14,24.78-7.46,24.78-18.6C40.18,9.71,34.64,2.05,21.53,3.7ZM51.58,15.56a5.64,5.64,0,0,0,4.69-5.3,4.05,4.05,0,0,0-4.69-4.07,5.4,5.4,0,0,0-4.69,5.25A4.09,4.09,0,0,0,51.58,15.56ZM198,12.27c-2.18,4-4.8,6.34-7.41,7.09A25.22,25.22,0,0,0,193,9.26c0-6.21-3.57-9.51-10-8.7-8.87,1.12-14,9.05-15.78,15.88-4,7.32-6.51,10.87-8,11.05-.75.09-2-.6.43-6.91l1.49-4a8.08,8.08,0,0,0,.64-2.76c0-4-6.55-6.19-8.74-7.84l1.71-4.5L151.28,0c-2.18,1-5,4.22-5,7A4,4,0,0,0,147.93,10c-1.55,3.62-3,6.86-4.21,9.1h0c-3.84,7.07-7.46,11.28-9.59,11.54-1,.12-1.87-.57.53-6.92l6.61-17.22-10,4.9S130.13,7.22,125,7.87c-6.84.86-11.12,8.82-13.2,15.7-3.49,6.37-6.08,7.78-8,8-2.72.34-4.69-1.39-7.14-1.46l15.61-16.27-2.77-3.35c-5.22,2.64-9.22.46-13.59,1-6.39.81-7.62,6.74-12.1,15.13h0c-3.62,6.78-6.29,8.24-8.26,8.48-2.72.34-4.69-1.39-7.14-1.46L84,17.42l-2.77-3.35c-5.22,2.64-9.22.47-13.59,1-6.39.81-7.62,6.74-12.1,15.13h0c-3.78,7.06-7.46,11.28-9.59,11.55-.91.11-1.87-.52.59-6.93l6.55-17.22L44.6,18.69l-6,15.7c-3.89,10.19-.48,13.61,4.37,13,6.13-.77,11.46-7.66,15.56-15.4h0c3.46-6.54,4.58-8,7-8.28,2.24-.28,4.21.49,5.86.6L54.78,41.51l2.77,3.35c5.6-5.31,7.09-.2,13.7-1,6.77-.85,11-7.12,15.51-15.4h0c3.46-6.54,4.58-8,7-8.28,2.24-.28,4.21.49,5.86.6L83,38l2.77,3.35c5.6-5.31,7.09-.2,13.7-1,4.41-.56,7.75-3.42,10.79-7.63.25,3.48,2.26,6,6,5.52,4.69-.59,8.37-5.5,8.37-5.5s.69,4.36,6.23,3.66c6.5-.82,11.67-7.63,15.83-15.44h0A94,94,0,0,0,151,11.72c1.44,1.05,2.61,1.87,2.61,2.94a5.64,5.64,0,0,1-.48,1.94l-1.71,4.55c-3.84,10,.59,12.51,4.74,12s7.52-4.14,10.59-8.93c.91,4.53,4.36,7,10,6.34a16.71,16.71,0,0,0,11.14-6.71c5.44-.26,10.29-4.46,13.16-9.8A3.54,3.54,0,0,0,198,12.27Zm-72.42,14s-2.45,4.17-5.38,4.53c-1.07.13-1.71-.37-1.71-1.77,0-3.43,3.94-13.94,8.15-14.47,2.34-.29,2.4,2.7,2.4,2.7Zm58.19-12.15A5,5,0,0,0,179.26,19a3.81,3.81,0,0,0,1.17,2.85c-1.17,1.7-2.5,2.94-3.78,3.1s-2.08-.86-2.08-2.58c0-4,4.1-15.73,8.31-16.26C184,6,185,6.69,185,8.67A18.84,18.84,0,0,1,183.79,14.17Z"/></g></g></g></svg>