<svg xmlns="http://www.w3.org/2000/svg" viewBox="0 0 29 22"><defs><style>.cls-1{fill:#fff;fill-rule:evenodd;}</style></defs><title>svgAsset 9</title><g id="Layer_2" data-name="Layer 2"><g id="Header"><g id="Order_Cart" data-name="Order Cart"><g id="scooter_icon" data-name="scooter icon"><path class="cls-1" d="M29,15.41c-.44-2.15-2.41-2.78-4.79-3,0-1.38-.88-2-1.48-2.95A25.79,25.79,0,0,1,19.6,2.95c.86.08,2,.43,2.39-.28a3.1,3.1,0,0,0,.06-2C21.87.13,21.3.09,20.85,0h-.28c-1.27.15-2.4.44-2.62,1.64-.59.26-1.11.49-1.82.79-.53.22-1.53.45-1.54,1.08,0,.92,1.12.56,1.65.28s1.15-.74,1.6-.91c.69,2.72,2.29,6.44.68,9.46C17.65,14,15.73,14.62,13,14.5c-2.24-.1-3-1.1-2.56-3.51.1-.51.33-1.13.11-1.42-.35-.46-1.5,0-2.11.17A18,18,0,0,1,1,9.52c-.47,1-1.32,3.1-.91,4.64.22.82,1,1.13,1.65,1.53A4.37,4.37,0,0,0,5.06,22,4.25,4.25,0,0,0,9.8,17.45a28.69,28.69,0,0,0,9.35-.57C19,18,19.4,19,20.51,18.75A4.23,4.23,0,0,0,25.07,22a4.33,4.33,0,0,0,3.19-6.51C28.49,15.51,28.85,15.58,29,15.41ZM5.58,20.22a2.49,2.49,0,0,1-2.11-3.85c.52.18,1.14.26,1.65.45.06.24-.36.43-.4.79a.84.84,0,0,0,.74,1c.93.07,1.09-1,1.71-1.42a7.92,7.92,0,0,1,.8.11A2.42,2.42,0,0,1,5.58,20.22Zm19.09,0a2.52,2.52,0,0,1-2.51-2,1.58,1.58,0,0,1,.4-1.53c.77.43,1,1.87,2,1.93a.82.82,0,0,0,.91-.85c0-.78-1.18-1.25-1.2-1.81.54,0,.88-.37,1.37-.34.87.06,1.46,1.17,1.48,2.1A2.52,2.52,0,0,1,24.67,20.22ZM2.5,8.55a26.42,26.42,0,0,0,3,.11c2.2,0,4.24,0,5.47-.85.15-1.69-2.45-1.25-4.22-1.25-2.07,0-4-.18-5.47,0C.75,6.64.1,7.12.22,7.7S1.85,8.47,2.5,8.55Z"/></g></g></g></g></svg>