<?xml version="1.0" encoding="utf-8"?>
<!-- Generator: Adobe Illustrator 21.1.0, SVG Export Plug-In . SVG Version: 6.00 Build 0)  -->
<svg version="1.1" id="Layer_1" xmlns="http://www.w3.org/2000/svg" xmlns:xlink="http://www.w3.org/1999/xlink" x="0px" y="0px"
	 viewBox="0 0 29 22" style="enable-background:new 0 0 29 22;" xml:space="preserve">
<style type="text/css">
	.st0{fill:#A3A3A3;}
</style>
<title>svgAsset 9</title>
<g id="Layer_2">
	<g id="Header">
		<g id="Order_Cart">
			<g id="scooter_icon">
				<path class="st0" d="M29,15.4c-0.4-2.1-2.4-2.8-4.8-3c0-1.4-0.9-2-1.5-2.9c-1.3-2-2.4-4.2-3.1-6.5c0.9,0.1,2,0.4,2.4-0.3
					c0.2-0.6,0.3-1.3,0.1-2c-0.2-0.5-0.8-0.6-1.2-0.7h-0.3c-1.3,0.2-2.4,0.4-2.6,1.6c-0.6,0.3-1.1,0.5-1.8,0.8
					c-0.5,0.2-1.5,0.5-1.5,1.1c0,0.9,1.1,0.6,1.7,0.3s1.1-0.7,1.6-0.9c0.7,2.7,2.3,6.4,0.7,9.5c-0.9,1.7-2.8,2.3-5.5,2.2
					c-2.2-0.1-3-1.1-2.6-3.5c0.1-0.5,0.3-1.1,0.1-1.4c-0.4-0.5-1.5,0-2.1,0.2C6,10.2,3.4,10.1,1,9.5c-0.5,1-1.3,3.1-0.9,4.6
					c0.2,0.8,1,1.1,1.7,1.5c-1.1,2.2-0.2,4.8,1.9,5.9c0.4,0.2,0.9,0.4,1.4,0.4c2.3,0.3,4.4-1.4,4.7-3.7c0-0.3,0-0.6,0-0.8
					c3.1,0.3,6.3,0.1,9.4-0.6C19,18,19.4,19,20.5,18.7c0.5,2.1,2.4,3.5,4.6,3.2c2.4-0.3,4.1-2.5,3.8-4.8c-0.1-0.6-0.3-1.2-0.6-1.7
					C28.5,15.5,28.9,15.6,29,15.4z M5.6,20.2c-1.4,0-2.5-1.1-2.5-2.5c0-0.5,0.1-1,0.4-1.4c0.5,0.2,1.1,0.3,1.6,0.5
					c0.1,0.2-0.4,0.4-0.4,0.8c-0.1,0.5,0.2,0.9,0.7,1c0,0,0.1,0,0.1,0c0.9,0.1,1.1-1,1.7-1.4c0.3,0,0.5,0.1,0.8,0.1
					c0.3,1.3-0.6,2.6-1.9,2.9C5.9,20.2,5.8,20.2,5.6,20.2z M24.7,20.2c-1.2,0-2.3-0.8-2.5-2c-0.1-0.5,0-1.1,0.4-1.5
					c0.8,0.4,1,1.9,2,1.9c0.5,0.1,0.9-0.3,0.9-0.7c0,0,0-0.1,0-0.1c0-0.8-1.2-1.2-1.2-1.8c0.5,0,0.9-0.4,1.4-0.3
					c0.9,0.1,1.5,1.2,1.5,2.1C27.1,19.1,26,20.2,24.7,20.2z M2.5,8.5c1,0.1,2,0.1,3,0.1c2.2,0,4.2,0,5.5-0.9
					c0.1-1.7-2.4-1.2-4.2-1.2c-2.1,0-4-0.2-5.5,0C0.8,6.6,0.1,7.1,0.2,7.7S1.9,8.5,2.5,8.5z"/>
			</g>
		</g>
	</g>
</g>
</svg>
