<svg xmlns="http://www.w3.org/2000/svg" viewBox="0 0 44 44"><defs><style>.cls-1{fill:#fff;fill-rule:evenodd;}</style></defs><title>svgAsset 5</title><g id="Layer_2" data-name="Layer 2"><g id="Header"><g id="Food_Menu" data-name="Food Menu"><g id="Pizza"><g id="pizza_icon" data-name="pizza icon"><path class="cls-1" d="M42.51,21.14A38.47,38.47,0,0,0,34.93,9.32C30.75,5.21,24.82,1.24,18.34,0c-1.65-.31-2.39,4-3,5.67-.75,2-1.58,4-2.21,5.52C9.33,20.51,5.44,29.62,1.75,38.32,1,40.07-.14,42,0,44c2.08.13,3.76-1.16,5.53-1.89s3.72-1.45,5.53-2.21C20.19,36.1,28.9,32,38.56,28.7c1.69-.58,5-1.41,5.37-2.52S43.1,22.53,42.51,21.14ZM13.28,15.3c4.85-2.28,7.15,5.88,2.37,6.78a3.81,3.81,0,0,1-4.27-2.36C12,18.25,12.61,16.73,13.28,15.3ZM9.49,32.17A1.87,1.87,0,0,1,6,33.43C5.47,30.66,9.05,30.12,9.49,32.17Zm6.16-.31a2.37,2.37,0,0,1,1.9-2.52c2-.52,3.35.53,3.48,2.21C21.3,35.3,15.71,35.46,15.65,31.85Zm6.79,1.42c2.48-8-11-7.06-8.22.16a4,4,0,0,0,2.21,2.21c-4.36,2.27-9.42,3.84-13.9,6,.25-2.07,1.77-4.22,2.37-6.46.73,0,1.18.8,2.05.95,5.18.86,5.85-7.13.47-6.93,1.12-2.41,2-5,3.16-7.41a5.35,5.35,0,0,0,9.48-3.94c-.33-2.85-2.5-4.53-6-4.57.67-1.48,1.29-3,1.9-4.57A30.63,30.63,0,0,1,35.4,28.07C31,29.7,26.88,31.66,22.45,33.27Zm14.53-6A32.37,32.37,0,0,0,16.76,7.11c.44-1.92,1.17-3.56,1.74-5.36,12.12,3.73,19.94,11.74,23.7,23.8A42.26,42.26,0,0,1,37,27.28Z"/></g></g></g></g></g></svg>