<?xml version="1.0" encoding="utf-8"?>
<!-- Generator: Adobe Illustrator 21.1.0, SVG Export Plug-In . SVG Version: 6.00 Build 0)  -->
<svg version="1.1" id="Layer_1" xmlns="http://www.w3.org/2000/svg" xmlns:xlink="http://www.w3.org/1999/xlink" x="0px" y="0px"
	 viewBox="0 0 44 44" style="enable-background:new 0 0 44 44;" xml:space="preserve">
<style type="text/css">
	.st0{fill:#A3A3A3;}
</style>
<title>svgAsset 3</title>
<g id="Layer_2">
	<g id="Header">
		<g id="Food_Menu">
			<g id="Salads">
				<g id="salad_icon">
					<path class="st0" d="M7.1,14.7c0.2,11.4,20.9,13,28.8,7c-2.2-3.4-3.9-7.9-7-11.6c-2.6-3-6.9-7.4-11.3-7.5
						c-3.5-0.1-5,1.9-6.4,4.2c-0.9-1.2-1.6-2.6-2-4.1C8.8,1.4,8.9-0.9,7.2,0.3C6.9,4,8.8,6.5,10.2,9C8.1,9.7,7,12.5,7.1,14.7z
						 M11.1,10.2c3.4,3,7,5.7,10.8,8.1c1.1,0.6,2.6,2.2,4.1,1.2c-0.3-1.7-2.3-2.1-3.4-2.8c-2.5-1.5-4.8-3.2-7-5.2
						c-0.9-0.8-2.9-2.1-3-3.1c-0.2-2.1,3-4.5,5.8-4.1C18.9,4.5,19.5,4.7,20,5c6,2.8,10.8,11,13.5,16.1c-7.3,4-21.9,2.8-24.4-4.7
						C8.3,14.1,9.1,11.1,11.1,10.2L11.1,10.2z M43.7,20.4c-1-3.1-5.3-3.7-8.6-4.8c-0.2,0.1-0.3,0.2-0.5,0.3
						c-0.1,0.2-0.2,0.4-0.3,0.6c1.4,2,8,1.9,7.8,5.2c-0.1,1.2-2,2.4-3.4,3c-7.5,3.2-19.5,3.3-28.3,1.4c-3.2-0.7-8.5-1.9-8.4-4.5
						s3.7-1.7,4.4-4.4c-1.1-1.1-2.6,0.2-3.4,0.8c-1.1,0.6-2,1.5-2.5,2.7c-1.2,4.2,1.1,9.1,2.2,11.4c1.3,3.1,3.4,5.9,5.9,8.1
						C14.4,45,26.4,45,33,41.7c3.5-1.8,6.1-5.2,7.8-8.3C42.2,31,45,24.5,43.7,20.4z M31.5,40.4c-6,2.6-15.7,2.4-21.1-1.1
						c-4-2.6-7.2-8.8-8.3-14.6c0.1,0,0.2,0.1,0.2,0.2c8.8,5,28.8,5.8,38.3,0.8c0.5-0.2,1-1.1,1.4-0.6C40.2,31.8,37.4,37.8,31.5,40.4
						L31.5,40.4z"/>
				</g>
			</g>
		</g>
	</g>
</g>
</svg>
