<svg xmlns="http://www.w3.org/2000/svg" viewBox="0 0 44 44"><defs><style>.cls-1{fill:#ffffff;fill-rule:evenodd;}</style></defs><title>svgAsset 3</title><g id="Layer_2" data-name="Layer 2"><g id="Header"><g id="Food_Menu" data-name="Food Menu"><g id="Salads"><g id="salad_icon" data-name="salad icon"><path class="cls-1" d="M7.07,14.75c.25,11.37,20.93,13,28.77,7-2.18-3.41-3.9-7.87-7-11.58-2.57-3-6.89-7.41-11.26-7.51-3.47-.08-5,1.93-6.41,4.23a11.86,11.86,0,0,1-2-4.07C8.76,1.43,8.87-.88,7.23.35,6.87,4,8.83,6.55,10.2,9,8.12,9.68,7,12.48,7.07,14.75Zm4.07-4.54a83.49,83.49,0,0,0,10.79,8.14C23,19,24.57,20.55,26,19.6c-.26-1.69-2.26-2.1-3.44-2.82a47.27,47.27,0,0,1-7-5.17c-.92-.8-2.88-2.09-3-3.13-.18-2.07,3-4.52,5.79-4.07A8.19,8.19,0,0,1,20,5c6,2.84,10.81,11,13.45,16.12-7.3,4-21.93,2.82-24.39-4.7C8.34,14.15,9.11,11.13,11.13,10.21ZM43.66,20.39c-1-3.12-5.29-3.69-8.6-4.85a1.11,1.11,0,0,0-.47.31c-.08.23-.23.39-.31.63,1.42,2,8,1.85,7.82,5.17-.06,1.24-2,2.35-3.44,3-7.52,3.24-19.5,3.29-28.3,1.41-3.17-.68-8.46-1.9-8.44-4.54s3.73-1.72,4.38-4.38c-1.13-1.08-2.6.23-3.44.78a5.15,5.15,0,0,0-2.5,2.66C-.87,24.77,1.41,29.64,2.54,32a22.53,22.53,0,0,0,5.94,8.14C14.42,45,26.35,45,33,41.67c3.5-1.76,6.12-5.22,7.82-8.3C42.18,31,45,24.49,43.66,20.39Zm-12.2,20c-6,2.64-15.69,2.44-21.11-1.1-4-2.59-7.19-8.83-8.29-14.56.13,0,.15.06.16.16C11,29.84,31,30.67,40.53,25.71c.48-.25,1-1.11,1.41-.63C40.22,31.79,37.4,37.83,31.46,40.42Z"/></g></g></g></g></g></svg>