<?xml version="1.0" encoding="utf-8"?>
<!-- Generator: Adobe Illustrator 21.1.0, SVG Export Plug-In . SVG Version: 6.00 Build 0)  -->
<svg version="1.1" id="Capa_1" xmlns="http://www.w3.org/2000/svg" xmlns:xlink="http://www.w3.org/1999/xlink" x="0px" y="0px"
	 viewBox="0 0 46 48.5" style="enable-background:new 0 0 46 48.5;" xml:space="preserve">
<style type="text/css">
	.st0{fill:#FFFFFF;}
</style>
<g>
	<g>
		<path class="st0" d="M4.3,25.5c0,3.2,0.8,6.2,2.2,8.8l14.8-8.5l-15-8.7C5,19.6,4.3,22.5,4.3,25.5z M9,30.1c-0.5,0.2-1,0.4-1.5,0.5
			c-0.2,0.1-0.8,0.2-0.9-0.2c-0.1-0.3,0.5-0.6,0.7-0.6c0.4-0.1,0.7-0.2,1-0.3c0.3-0.1,0.8-0.2,1.1,0C9.7,29.7,9.2,30,9,30.1z
			 M15.4,24.3c0.7,0,1.3,0.6,1.3,1.3c0,0.7-0.6,1.3-1.3,1.3c-0.7,0-1.3-0.6-1.3-1.3C14.1,24.9,14.7,24.3,15.4,24.3z M11.9,26.2
			c0,1.1-0.9,1.9-1.9,1.9c-1.1,0-1.9-0.9-1.9-1.9s0.9-1.9,1.9-1.9C11,24.3,11.9,25.2,11.9,26.2z M8.1,19.6c0.7,0,1.3,0.6,1.3,1.3
			c0,0.7-0.6,1.3-1.3,1.3c-0.7,0-1.3-0.6-1.3-1.3C6.8,20.2,7.4,19.6,8.1,19.6z M5.7,25.1c-1.1,0,0.1-0.8,0.7-0.8
			C7.5,24.4,6.2,25.1,5.7,25.1z"/>
		<path class="st0" d="M22.2,5.9V2.5C14.2,2.8,7.3,7.1,3.4,13.4l2.9,1.7C9.7,9.8,15.5,6.2,22.2,5.9z"/>
		<path class="st0" d="M41.3,12.6l2.9-1.7C40.3,4.6,33.4,0.3,25.5,0v3.4C32.2,3.6,38,7.3,41.3,12.6z"/>
		<path class="st0" d="M42.4,37.9l-2.9-1.7c-3.4,5.2-9.1,8.7-15.6,8.9v3.4C31.6,48.2,38.4,44,42.4,37.9z"/>
		<path class="st0" d="M40.5,16.6c1.4,2.7,2.1,5.7,2.1,8.9c0,3.3-0.8,6.5-2.3,9.2l2.9,1.7c1.8-3.3,2.8-7,2.8-10.9
			c0-3.8-0.9-7.4-2.6-10.6L40.5,16.6z"/>
		<path class="st0" d="M5.7,34.7c-1.5-2.8-2.3-5.9-2.3-9.2c0-3.2,0.8-6.2,2.1-8.9l-2.9-1.7C0.9,18.1,0,21.7,0,25.5
			c0,4,1,7.7,2.8,10.9L5.7,34.7z"/>
		<path class="st0" d="M22.2,48.5v-3.4c-6.5-0.3-12.3-3.8-15.6-8.9l-2.9,1.7C7.6,44,14.4,48.2,22.2,48.5z"/>
		<path class="st0" d="M22.2,6.8c-6.4,0.3-11.9,3.7-15,8.8l15,8.7V6.8z M12.9,16.2c-1.1,0-1.9-0.9-1.9-1.9c0-1.1,0.9-1.9,1.9-1.9
			c1.1,0,1.9,0.9,1.9,1.9C14.8,15.3,13.9,16.2,12.9,16.2z M18.6,19.6c-0.7,0-1.3-0.6-1.3-1.3s0.6-1.3,1.3-1.3c0.7,0,1.3,0.6,1.3,1.3
			C19.9,19.1,19.3,19.6,18.6,19.6z M18.5,14.9c-0.2-0.3-0.5-0.5-0.9-0.6c-0.4-0.1-0.4-0.5-0.2-0.8c0.3-0.3,0.8-0.4,1.1-0.3
			c0.6,0.2,1.1,0.5,1.4,0.9C20.5,14.8,19,15.5,18.5,14.9z M19.2,11.9c-0.7,0-1.3-0.6-1.3-1.3c0-0.7,0.6-1.3,1.3-1.3
			c0.7,0,1.3,0.6,1.3,1.3C20.4,11.3,19.9,11.9,19.2,11.9z"/>
		<path class="st0" d="M41.7,25.5c0-3-0.7-5.9-2-8.4l-15,8.7l14.8,8.5C40.9,31.7,41.7,28.7,41.7,25.5z M39.2,20.1
			c1.1,0-0.2,0.7-0.7,0.7C37.4,20.8,38.7,20.1,39.2,20.1z M31.2,27c-0.7,0-1.3-0.6-1.3-1.3c0-0.7,0.6-1.3,1.3-1.3
			c0.7,0,1.3,0.6,1.3,1.3C32.5,26.4,31.9,27,31.2,27z M34.7,24.4c0.8,0-0.7,0.7-1.1,0.7C32.9,25.1,34.4,24.4,34.7,24.4z M34,28.6
			c-1.1,0,0-1,0.6-1C35.7,27.6,34.6,28.6,34,28.6z M37.3,31.8c-0.7,0-1.3-0.6-1.3-1.3c0-0.7,0.6-1.3,1.3-1.3c0.7,0,1.3,0.6,1.3,1.3
			C38.6,31.2,38,31.8,37.3,31.8z M38,26.8c-1.1,0-1.9-0.9-1.9-1.9c0-1.1,0.9-1.9,1.9-1.9c1.1,0,1.9,0.9,1.9,1.9
			C39.9,25.9,39,26.8,38,26.8z"/>
		<path class="st0" d="M22.2,44.2V27.2L7.4,35.8C10.6,40.6,16,43.9,22.2,44.2z M19.5,42.8c-1.1,0,0.1-0.8,0.7-0.8
			C21.2,42,20,42.8,19.5,42.8z M19.2,31.8c0.7,0,1.3,0.6,1.3,1.3c0,0.7-0.6,1.3-1.3,1.3c-0.7,0-1.3-0.6-1.3-1.3
			C17.9,32.4,18.5,31.8,19.2,31.8z M15.9,34.8c1.1,0,0.1,1-0.6,1C14.2,35.8,15.3,34.8,15.9,34.8z M16.7,36.4c1.1,0,1.9,0.9,1.9,1.9
			c0,1.1-0.9,1.9-1.9,1.9c-1.1,0-1.9-0.9-1.9-1.9C14.8,37.3,15.6,36.4,16.7,36.4z M11.3,35c0.7,0,1.3,0.6,1.3,1.3
			c0,0.7-0.6,1.3-1.3,1.3c-0.7,0-1.3-0.6-1.3-1.3C10,35.5,10.6,35,11.3,35z"/>
		<path class="st0" d="M38.6,35.8l-14.8-8.5v16.9C30,43.9,35.4,40.6,38.6,35.8z M26.6,41.5c-0.7,0-1.3-0.6-1.3-1.3
			c0-0.7,0.6-1.3,1.3-1.3c0.7,0,1.3,0.6,1.3,1.3C27.8,40.9,27.3,41.5,26.6,41.5z M27.4,36.2c-1.1,0-1.9-0.9-1.9-1.9
			c0-1.1,0.9-1.9,1.9-1.9c1.1,0,1.9,0.9,1.9,1.9C29.3,35.4,28.5,36.2,27.4,36.2z M29.4,39c-0.8,0,0.7-0.6,1.1-0.6
			C31.2,38.4,29.7,39,29.4,39z M34.2,37.7c-0.7,0-1.3-0.6-1.3-1.3c0-0.7,0.6-1.3,1.3-1.3c0.7,0,1.3,0.6,1.3,1.3
			C35.4,37.1,34.9,37.7,34.2,37.7z"/>
		<path class="st0" d="M25.5,4.3v17.5l15-8.7C37.4,8,31.9,4.6,25.5,4.3z M30.4,6.8c0.7,0,1.3,0.6,1.3,1.3s-0.6,1.3-1.3,1.3
			c-0.7,0-1.3-0.6-1.3-1.3C29.1,7.4,29.7,6.8,30.4,6.8z M27.7,5.6c1.1,0,0.1,1.1-0.6,1.1C26,6.7,27,5.6,27.7,5.6z M28.5,17.5
			c-1.1,0-1.9-0.9-1.9-1.9s0.9-1.9,1.9-1.9c1.1,0,1.9,0.9,1.9,1.9S29.5,17.5,28.5,17.5z M30.4,11.8c-0.3,0.3-0.8,0.3-1.2,0.1
			c-0.4-0.2-0.8-0.3-1.2-0.4c-0.4-0.1-0.7-0.3-0.5-0.7c0.2-0.4,0.7-0.6,1.1-0.5c0.7,0.1,1.3,0.3,1.9,0.7
			C30.9,11.2,30.7,11.6,30.4,11.8z M31.5,14.8c-1.1,0-0.1-1.1,0.6-1.1C33.2,13.7,32.2,14.8,31.5,14.8z M34.2,13
			c-0.7,0-1.3-0.6-1.3-1.3s0.6-1.3,1.3-1.3c0.7,0,1.3,0.6,1.3,1.3S34.9,13,34.2,13z M36.4,12.5c-0.8,0,0.7-0.6,1.1-0.6
			C38.2,11.8,36.7,12.5,36.4,12.5z"/>
	</g>
</g>
</svg>
