<svg xmlns="http://www.w3.org/2000/svg" viewBox="0 0 47 37"><defs><style>.cls-1{fill:#ffffff;fill-rule:evenodd;}</style></defs><title>svgAsset 1</title><g id="Layer_2" data-name="Layer 2"><g id="Header"><g id="Food_Menu" data-name="Food Menu"><g id="Tacos"><g id="taco_icon" data-name="taco icon"><path class="cls-1" d="M46.84,22.78c-.32-1.55-1.58-2.42-1.85-3.88-.47-2.58.34-4.18-.5-6.07A7.1,7.1,0,0,0,42.31,10c-.88-.66-2.25-.6-3.52-1.52-1-.72-1.15-2-1.85-2.87a8.31,8.31,0,0,0-2.52-2c-1.45-.68-2.92-.5-4.19-.84C27.64,2,27,.13,24,0a7.78,7.78,0,0,0-2.52.34C19.9.8,19,2.15,17.15,2.71c-1.44.42-2.55.1-4.19.84a8.2,8.2,0,0,0-2.68,2c-.52.62-.83,2.15-1.85,2.87-1.36,1-2.62.77-3.86,1.86A7.54,7.54,0,0,0,2,14.68c-.17,1.11.37,2.34.17,3.88C2,20.45,0,21.65,0,24.3v.34c-.32,2.26,1.63,3.53,2,5.23.64,2.89-.64,5.74,2.18,6.75,2.13.76,6.62.17,9.56.17H33.25c3.51,0,7.6.47,9.56-.17,2.81-.91,1.7-3.07,2.35-6.58C45.58,27.77,47.56,26.33,46.84,22.78ZM2.22,25c-.09,1.71-.39-.91-.17-1.86a3.75,3.75,0,0,1,1-1.69C3.28,20.92,2.39,24.07,2.22,25ZM6.75,11c.85-.46,2-.52,2.85-1.18,1.13-.85,1.57-2.87,2.85-3.88,1.56-1.23,4-1,5.54-1.52,2.49-.85,4-3.55,7.72-2.19C27,2.66,27.87,4,29.06,4.39c2.32.84,4.45.32,6,1.86C36.21,7.32,36.43,9,37.45,9.79s2.42.62,3.69,1.52c2.14,1.51,2.46,4.45,2,7.59C39.47,12.38,33.5,6.62,23.86,6.58,14,6.54,7.64,12.16,4.06,19.07,3.44,15.52,4.13,12.38,6.75,11ZM42.81,34.59c-8.89.61-19,.34-29,.34-2.45,0-8.22.68-9.39-.34-.77-.67-.5-3.09-.5-3.88,0-1.18-.08-3.17,0-4.22a19.61,19.61,0,0,1,19.29-18A19.7,19.7,0,0,1,43.32,26.32,23.71,23.71,0,0,1,42.81,34.59Zm2.35-8.94c-.5-1.3-.51-3.09-1.17-4.22C44.65,21.23,45.43,23.79,45.16,25.65Zm-29-3.2A1.71,1.71,0,0,0,14,20.92a1.84,1.84,0,0,0-1.68,1.52C12,25.58,16.39,25,16.14,22.44ZM9.6,25c-1.25.09-1.74.61-1.85,1.52-.37,3.21,4.17,2.65,3.69-.17A1.55,1.55,0,0,0,9.6,25Zm4.86,2.7c-2.5.88-.56,3.63.84,3.54C17.36,31.08,17.85,26.47,14.46,27.67Z"/></g></g></g></g></g></svg>