<?xml version="1.0" encoding="utf-8"?>
<!-- Generator: Adobe Illustrator 21.1.0, SVG Export Plug-In . SVG Version: 6.00 Build 0)  -->
<svg version="1.1" id="Layer_1" xmlns="http://www.w3.org/2000/svg" xmlns:xlink="http://www.w3.org/1999/xlink" x="0px" y="0px"
	 viewBox="0 0 29 45" style="enable-background:new 0 0 29 45;" xml:space="preserve">
<style type="text/css">
	.st0{fill:#A3A3A3;}
</style>
<title>svgAsset 2</title>
<g id="Layer_2">
	<g id="Header">
		<g id="Food_Menu">
			<g id="Wraps">
				<g id="wrap_icon">
					<path class="st0" d="M0.1,11.4c-0.3,2.7,0.3,5.5,0.5,8c0.4,5,1.1,9.8,1.8,14.9c0.6,4.2,0.3,8.4,3.7,9.8c2,0.8,5.6,0.7,8.7,0.8
						c4.8,0.1,9.3-0.2,10.8-3.2c0.8-1.6,0.9-4.3,1.3-6.7c1-6.6,2-15.6,2.2-22.1v-0.3C29-4.3,1.6-3.7,0.1,11.4z M4.9,5.1
						C9.1,1.1,18.7,0.7,23.2,4c1.7,1.2,4.3,4.3,2.2,6.7c-1.1-2.4-3.2-4.6-6.8-4c-1.7-1.2-4.3-3.1-7.2-2.1c-0.2,0.6-0.1,1.3,0.3,1.8
						c-3.5,0.4-6.6,2.5-8.4,5.6C0.8,10.6,3.2,6.8,4.9,5.1z M12.5,11.4c2.7,0.8,1.3-3.7,1.1-5.1c3.4,0,4.1,2.9,5.8,4.7
						c0.5,0,0.6-0.3,1-0.5c0.2-1.1-0.5-1.2-0.5-2.1c1.9,0,3.6,1.5,3.9,3.4c-3.4,1.5-8.1,1.6-10.4,4.2c-2.6-1.3-5.4-2.2-8.2-2.9
						c1.2-2.8,4-4.7,7.1-4.6C12.5,9.1,12.1,10.6,12.5,11.4z M5.1,40.9c-0.7-1.5-0.6-4.3-1-6.7c-0.9-6.5-1.9-14.9-2.2-21
						c2.8,2,7.1,2.5,10.3,4.2C7.9,23.6,7.6,37.8,12.4,43C9.7,42.8,6.2,43.4,5.1,40.9z M25,34.4c-0.3,2.4-0.5,6.2-1.6,7.4
						c-1.6,1.7-4.9,1-7.6,1.5c-5.4-3.1-6.4-13-4-20.4c0.8-2.3,1.8-5.1,3.2-6.3c3.1-2.6,9.3-1.5,11.9-4.8
						C27.5,16.8,25.9,27.9,25,34.4z M15.5,21.8c-2,0.8-0.8,3.5,1,3.4C18.7,25,18.5,20.7,15.5,21.8z M18.7,27.1
						c-2.2,0.8,1.6,2.9,1.1,0.5C19.7,27,19.2,27,18.7,27.1z"/>
				</g>
			</g>
		</g>
	</g>
</g>
</svg>
