<svg xmlns="http://www.w3.org/2000/svg" viewBox="0 0 29 44.98"><defs><style>.cls-1{fill:#ffffff;fill-rule:evenodd;}</style></defs><title>svgAsset 2</title><g id="Layer_2" data-name="Layer 2"><g id="Header"><g id="Food_Menu" data-name="Food Menu"><g id="Wraps"><g id="wrap_icon" data-name="wrap icon"><path class="cls-1" d="M.08,11.41c-.28,2.73.27,5.51.48,8,.42,5,1.07,9.76,1.77,14.93.56,4.2.33,8.35,3.69,9.79,2,.84,5.57.72,8.67.8,4.81.13,9.28-.19,10.76-3.21.78-1.58.93-4.31,1.29-6.74,1-6.61,2-15.57,2.25-22.15v-.32C29-4.26,1.64-3.72.08,11.41ZM4.9,5.15C9.08,1.08,18.74.74,23.21,4c1.68,1.23,4.29,4.34,2.25,6.74-1.06-2.44-3.18-4.6-6.75-4C17,5.5,14.43,3.61,11.48,4.67a1.88,1.88,0,0,0,.32,1.77,10.92,10.92,0,0,0-8.35,5.62C.83,10.58,3.24,6.76,4.9,5.15Zm7.55,6.26c2.67.79,1.32-3.67,1.12-5.14,3.43,0,4.06,2.9,5.78,4.65.49,0,.62-.34,1-.48.2-1.05-.48-1.23-.48-2.09a4,4,0,0,1,3.86,3.37c-3.36,1.52-8.13,1.61-10.44,4.17A40.64,40.64,0,0,0,5.06,13a7.64,7.64,0,0,1,7.07-4.65C12.46,9.15,12.08,10.65,12.45,11.41ZM5.06,40.94c-.71-1.5-.64-4.3-1-6.74-.87-6.51-1.94-14.91-2.25-21,2.84,2,7.09,2.54,10.28,4.17C7.9,23.59,7.64,37.8,12.45,43,9.67,42.82,6.2,43.36,5.06,40.94ZM25,34.36c-.34,2.42-.47,6.21-1.61,7.38-1.65,1.7-4.91,1-7.55,1.45-5.45-3.06-6.41-13-4-20.39.75-2.3,1.77-5.06,3.21-6.26,3.14-2.62,9.29-1.5,11.89-4.82C27.52,16.78,25.89,27.89,25,34.36ZM15.5,21.84c-2,.82-.76,3.52,1,3.37C18.66,25,18.45,20.66,15.5,21.84Zm3.21,5.3c-2.22.8,1.64,2.88,1.12.48C19.71,27,19.24,27,18.71,27.14Z"/></g></g></g></g></g></svg>